<?xml version="1.0" standalone="no"?>
<!DOCTYPE svg PUBLIC "-//W3C//DTD SVG 1.1//EN" "http://www.w3.org/Graphics/SVG/1.1/DTD/svg11.dtd" >
<svg xmlns="http://www.w3.org/2000/svg" xmlns:xlink="http://www.w3.org/1999/xlink" version="1.1">
<metadata>
Created by FontForge 20200427 at Wed Jun 20 22:30:57 2018
 By www
Kathen (c) 7NTypes. 2018. All Rights Reserved
</metadata>
<defs>
<font id="Kathen" horiz-adv-x="1330" >
  <font-face 
    font-family="Kathen"
    font-weight="400"
    font-stretch="normal"
    units-per-em="2048"
    panose-1="2 0 5 0 0 0 0 0 0 0"
    ascent="1638"
    descent="-410"
    x-height="1122"
    cap-height="1510"
    bbox="-315 -460 3606 1917"
    underline-thickness="150"
    underline-position="-292"
    unicode-range="U+001D-E028"
  />
<missing-glyph horiz-adv-x="1024" 
 />
    <glyph glyph-name=".notdef" horiz-adv-x="1024" 
 />
    <glyph glyph-name=".null" horiz-adv-x="0" 
 />
    <glyph glyph-name=".null" horiz-adv-x="0" 
 />
    <glyph glyph-name="nonmarkingreturn" horiz-adv-x="508" 
 />
    <glyph glyph-name="space" unicode=" " horiz-adv-x="400" 
 />
    <glyph glyph-name="space" unicode="&#xa0;" horiz-adv-x="400" 
 />
    <glyph glyph-name="exclam" unicode="!" horiz-adv-x="703" 
d="M269 -54q-39 0 -80 17t-67 53q-22 30 -22 74q0 78 37 128q55 75 162 75q81 0 122 -42q35 -36 35 -90q0 -100 -64 -162q-55 -53 -123 -53zM312 392q-74 0 -110.5 28.5t-51.5 73.5q-36 113 -36 346q0 77 7.5 235.5t63.5 331.5q24 73 71 102t153 29q77 0 118 -27
q76 -51 76 -326q0 -296 -77 -585q-15 -57 -37 -103q-48 -104 -177 -105z" />
    <glyph glyph-name="quotedbl" unicode="&#x22;" horiz-adv-x="879" 
d="M237 993q-13 0 -25 1q-64 8 -80 62q-8 28 -14 75q-18 124 -18 188q0 40 4 65q22 159 184 159q73 0 108 -27q49 -36 49 -119q0 -89 -63 -260q-8 -21 -33 -65q-45 -79 -112 -79zM621 993q-13 0 -25 1q-64 8 -80 62q-8 28 -14 75q-18 124 -18 188q0 40 4 65q22 159 184 159
q73 0 108 -27q49 -36 49 -119q0 -89 -63 -260q-8 -21 -33 -65q-45 -79 -112 -79z" />
    <glyph glyph-name="numbersign" unicode="#" horiz-adv-x="1281" 
d="M182 -87q-10 0 -20 3q-64 16 -70 60q-2 15 -2 31q0 79 81 384q-193 15 -193 97q0 37 50.5 63.5t195.5 39.5q19 75 43 150q-166 15 -166 104q0 35 38 57.5t188 36.5q71 227 121 327t124 100q79 0 79 -104q0 -44 -10.5 -103t-43.5 -207q75 2 202 2q39 106 81 208
q30 71 62.5 100.5t95.5 29.5q78 0 78 -98q0 -60 -53 -248q208 -16 208 -84q0 -30 -60 -67t-207 -49l-46 -147q208 -17 208 -81q0 -31 -65.5 -68t-212.5 -50q-64 -181 -145 -343q-49 -100 -149 -100q-45 0 -66 36q-13 22 -13 56q0 62 89 336l-158 -1q-60 -198 -122 -342
q-55 -129 -142 -129zM511 606l165 1q2 15 43 125h-176z" />
    <glyph glyph-name="dollar" unicode="$" horiz-adv-x="1126" 
d="M475 -270q-104 0 -104 230q-96 5 -167 28q-90 30 -134 80q-40 46 -40 102q0 48 32 73q27 21 60 21q53 0 89 -43q14 -16 42 -39q49 -42 157 -42q63 0 107 28q50 32 50 84q0 50 -49.5 97.5t-127 101.5t-153.5 121q-160 141 -160 316q0 210 144 341q112 101 287 125
q30 238 120 238q67 0 83 -123q6 -51 6 -113q171 -22 262 -131q87 -103 87 -226q0 -72 -31 -124q-24 -41 -59 -41q-53 0 -68 55q-36 135 -93.5 197t-143.5 62q-64 0 -104 -46q-47 -54 -47 -143q0 -88 65.5 -156t160.5 -132q69 -46 130 -98q126 -108 126 -237
q0 -292 -411 -362q-15 -244 -116 -244z" />
    <glyph glyph-name="percent" unicode="%" horiz-adv-x="1156" 
d="M242 805q-113 0 -175 70q-58 66 -58 166q0 165 106 271q93 93 212 93q104 0 175.5 -78t71.5 -189l-2 -18q-15 -141 -113 -228t-217 -87zM286 981q58 0 89 44q37 51 37 118q0 39 -18 70q-22 37 -69 37q-61 0 -93 -81q-18 -44 -18 -92q0 -96 72 -96zM125 -86l-12 1
q-40 11 -40 54q0 17 2 35q2 48 79 204q176 355 529 908q127 200 166 242q43 47 74 47q38 0 38 -54q0 -168 -678 -1261q-59 -94 -90.5 -135t-67.5 -41zM756 0q-113 0 -175 70q-58 66 -58 166q0 165 106 271q93 93 212 93q104 0 175.5 -78t71.5 -189l-2 -18
q-15 -141 -113 -228t-217 -87zM800 176q58 0 89 44q37 51 37 118q0 39 -18 70q-22 37 -69 37q-61 0 -93 -81q-18 -44 -18 -92q0 -96 72 -96z" />
    <glyph glyph-name="ampersand" unicode="&#x26;" horiz-adv-x="1278" 
d="M549 963q41 30 83 105q49 89 49 166q0 55 -48 55q-72 0 -105 -75q-18 -42 -18 -91q0 -73 38 -157zM369 -60q-102 0 -191 37t-136 105.5t-47 158.5q0 18 2 37q16 187 219 402q-110 175 -110 324q0 97 40 201q68 180 236 257q89 40 213 40q103 0 172 -39t97.5 -98
t28.5 -124q0 -112 -69 -236q-59 -108 -175 -205q58 -73 185 -202q35 75 67 163q35 92 46 117q50 114 116 114q28 0 44 -21.5t16 -59.5q0 -76 -32 -204q-36 -141 -94 -267q20 -18 37 -30q177 -126 177 -209q0 -34 -31 -65q-35 -36 -92 -36q-70 0 -155 31q-52 19 -104 42
q-199 -233 -460 -233zM392 132q124 0 246 142q-163 101 -284 228q-60 -69 -86 -142q-21 -57 -21 -103q0 -125 145 -125z" />
    <glyph glyph-name="quotesingle" unicode="'" horiz-adv-x="495" 
d="M237 993q-13 0 -25 1q-64 8 -80 62q-8 28 -14 75q-18 124 -18 188q0 40 4 65q22 159 184 159q73 0 108 -27q49 -36 49 -119q0 -89 -63 -260q-8 -21 -33 -65q-45 -79 -112 -79z" />
    <glyph glyph-name="parenleft" unicode="(" horiz-adv-x="720" 
d="M583 -304q-156 0 -279.5 113.5t-184.5 327.5q-44 154 -44 353q0 78 8 164q28 304 126.5 517.5t241.5 327t299 113.5q84 0 114 -30q8 -8 8 -18q0 -25 -55 -59q-181 -110 -274 -412.5t-93 -643.5q0 -495 218 -646q46 -31 46 -55q0 -12 -24 -32t-107 -20z" />
    <glyph glyph-name="parenright" unicode=")" horiz-adv-x="686" 
d="M68 1612q156 0 279.5 -113.5t184.5 -327.5q43 -154 43 -353q0 -78 -7 -164q-28 -304 -126.5 -517.5t-241.5 -327t-299 -113.5q-84 0 -114 30q-9 8 -9 18q0 25 55 59q181 110 274 412.5t93 643.5q0 495 -218 646q-46 31 -46 55q0 12 24.5 32t107.5 20z" />
    <glyph glyph-name="asterisk" unicode="*" horiz-adv-x="402" 
d="M4 934q-23 0 -48 18q-31 23 -31 51q0 14 8 32q35 75 101 134q-75 15 -139 54q-31 18 -31 41q0 12 7 28q17 39 59 39q74 0 158 -37l-1 28q0 67 25 130q12 29 30.5 39.5t48.5 10.5t46.5 -10.5t24 -39t7.5 -64.5q0 -40 -10 -86q90 36 156 36q48 0 58 -46q3 -11 3 -21
q0 -33 -37 -55q-66 -38 -155 -55q55 -56 88 -126q8 -17 8 -31q0 -5 -2 -16.5t-23.5 -27.5t-38.5 -16q-20 0 -42 17q-64 51 -106 120q-47 -78 -122 -130q-24 -17 -42 -17z" />
    <glyph glyph-name="plus" unicode="+" horiz-adv-x="1002" 
d="M455 140q-55 0 -72 45t-20 102q-4 74 -4 145q0 47 2 96q-239 2 -319 34q-39 16 -39 61q0 57 48 77q78 32 325 45q15 169 33 253q11 48 34.5 94.5t82.5 46.5q55 0 71.5 -45t19.5 -94q2 -28 2 -101v-150q163 -3 224 -11q52 -7 93 -23t41 -60q0 -58 -49 -77
q-86 -35 -324 -46q-24 -257 -67 -345q-22 -46 -82 -47z" />
    <glyph glyph-name="comma" unicode="," horiz-adv-x="392" 
d="M42 -339q-14 0 -22 9.5t-8 20.5q0 16 15 38.5t30 43.5q85 118 93 174q-59 5 -104.5 43t-45.5 107q0 72 37 121q57 75 162 75q81 0 122 -45q33 -36 33 -94q0 -223 -231 -444q-51 -49 -81 -49z" />
    <glyph glyph-name="hyphen" unicode="-" horiz-adv-x="906" 
d="M431 460q-229 0 -300 36q-31 16 -31 61q0 55 40 76q36 18 85 26q144 24 302 24q242 0 315 -37q30 -15 30 -57q0 -59 -37.5 -78.5t-124.5 -33.5t-279 -17z" />
    <glyph glyph-name="hyphen" unicode="&#xad;" horiz-adv-x="906" 
d="M431 460q-229 0 -300 36q-31 16 -31 61q0 55 40 76q36 18 85 26q144 24 302 24q242 0 315 -37q30 -15 30 -57q0 -59 -37.5 -78.5t-124.5 -33.5t-279 -17z" />
    <glyph glyph-name="period" unicode="." horiz-adv-x="390" 
d="M169 -54q-39 0 -80 17t-67 53q-22 30 -22 74q0 78 37 128q55 75 161 75q81 0 123 -42q35 -36 35 -92q0 -97 -65 -160q-55 -53 -122 -53z" />
    <glyph glyph-name="slash" unicode="/" horiz-adv-x="593" 
d="M38 -87q-11 0 -23 3q-64 15 -65 81q0 131 174 636q132 385 249 631q46 98 118 98q58 0 72 -43q9 -27 9 -58q0 -42 -16 -110q-65 -284 -157 -563q-100 -302 -208 -534q-30 -64 -71 -108q-31 -33 -82 -33z" />
    <glyph glyph-name="zero" unicode="0" horiz-adv-x="1149" 
d="M639 184q122 0 180 276q44 207 44 410q0 39 -4 108.5t-31.5 129.5t-80.5 60q-131 0 -191 -251q-45 -190 -45 -395q0 -116 26 -226.5t102 -111.5zM536 -41q-243 0 -358 198q-86 146 -86 357q0 43 4 87q30 337 182 545q158 218 403 218q155 0 252 -82q164 -139 164 -446
q0 -50 -4 -104q-29 -337 -171 -548q-150 -225 -386 -225z" />
    <glyph glyph-name="one" unicode="1" horiz-adv-x="843" 
d="M453 -25h-5q-125 0 -156 99q-33 104 -33 341q0 351 68 669q-164 -143 -214 -143q-24 0 -38 15q-22 23 -22 64q0 67 94 157q85 80 196 141.5t191 61.5q133 0 181 -110q41 -97 41 -361q0 -146 -18.5 -343.5t-64.5 -382.5q-10 -42 -41 -107q-48 -100 -179 -101z" />
    <glyph glyph-name="two" unicode="2" horiz-adv-x="990" 
d="M422 -28l-104 1q-217 3 -276 70q-28 32 -28 74q0 83 79 194q68 95 159 199q106 119 193 245q103 149 103 287q0 126 -91 126q-52 0 -86 -21t-61.5 -47t-58 -45t-74.5 -19q-42 0 -57 20q-12 16 -12 44q0 48 30 103q26 47 77 92q120 103 320 103q221 0 329 -124
q84 -96 84 -238q0 -22 -2 -45q-14 -153 -89.5 -282.5t-197.5 -254t-279 -264.5l-18 -17q103 6 253 6q97 0 154 -12q37 -7 67 -27q40 -27 40 -58q0 -20 -26 -39q-55 -43 -192 -58q-117 -13 -236 -13z" />
    <glyph glyph-name="three" unicode="3" horiz-adv-x="947" 
d="M300 -28q-92 0 -160.5 21.5t-104.5 53.5t-36 66q0 45 59 64.5t179 19.5q95 0 157 47q70 53 70 124q0 51 -32 90q-58 70 -185 117q-56 20 -56 55q0 31 37 74q34 39 82 85q66 65 125 139q67 85 67 169q0 67 -76 67q-41 0 -84.5 -25.5t-83.5 -54.5q-75 -55 -103 -55
q-44 0 -58 18.5t-14 47.5q0 48 31 104q64 113 217 169q83 30 197 30q107 0 183.5 -44.5t111.5 -110.5t35 -135q0 -109 -80 -211q-71 -92 -213 -165q163 0 255 -112q67 -84 67 -178q0 -134 -82 -251q-71 -101 -199 -160t-306 -59z" />
    <glyph glyph-name="four" unicode="4" horiz-adv-x="1129" 
d="M321 472q148 12 239 14q7 231 31 429q-51 -86 -107 -170q-99 -149 -163 -273zM722 -25q-65 0 -96 26q-63 54 -67 262q-68 -3 -135 -3q-178 0 -262 15q-141 25 -141 133q0 54 87 188q231 357 484 644q109 125 242 125q96 0 124.5 -51.5t36.5 -131.5q10 -110 10 -223
q0 -209 -36 -485q134 -23 134 -79q0 -30 -41 -58t-119 -42q-17 -97 -25 -128q-20 -76 -58 -133.5t-138 -58.5z" />
    <glyph glyph-name="five" unicode="5" horiz-adv-x="956" 
d="M294 -28q-91 0 -160 21t-105 52t-36 64q0 44 62 64q57 18 176 18q144 0 199 78q28 41 28 104q0 132 -111 220q-53 41 -109 74q-63 37 -105.5 74.5t-42.5 89.5q0 29 27 140q62 265 174 340q63 42 164.5 53.5t258.5 11.5q49 0 103.5 -9t89.5 -30t35 -54q0 -41 -38 -77
q-77 -74 -283 -76h-138q-31 0 -60 1q-5 -52 -21.5 -128.5t-35.5 -129.5q136 -5 258 -61t191 -153t69 -221q0 -138 -85 -254q-71 -98 -198.5 -155t-306.5 -57z" />
    <glyph glyph-name="six" unicode="6" horiz-adv-x="1104" 
d="M641 214q69 0 113 56q49 64 49 193q0 40 -10 80.5t-41.5 71.5t-79.5 31q-45 0 -89 -33.5t-61 -117.5q-9 -41 -9 -79q0 -40 10 -77q34 -125 118 -125zM546 -28q-243 0 -363 174q-94 135 -94 343q0 40 4 83q22 233 130.5 414.5t274.5 287.5t355 106q133 0 133 -91
q0 -61 -96 -115q-191 -107 -278 -255q-55 -93 -82 -221q100 96 231 96q112 0 182.5 -50.5t100.5 -130.5q24 -63 24 -133q0 -151 -76 -278q-62 -105 -173.5 -167.5t-272.5 -62.5z" />
    <glyph glyph-name="seven" unicode="7" horiz-adv-x="889" 
d="M263 -11q-62 0 -99 21q-60 34 -60 111q0 135 73 342q113 320 327 707q-126 -9 -180 -9q-277 0 -277 91q0 78 137 98q163 25 361 25q111 0 183 -15q138 -29 138 -174q0 -49 -23 -145q-48 -194 -127 -409q-98 -267 -206 -438q-130 -205 -247 -205z" />
    <glyph glyph-name="eight" unicode="8" horiz-adv-x="1147" 
d="M503 -39q-237 0 -336 99q-84 85 -84 210q0 130 77 229q64 81 156 146q-186 147 -186 337q0 192 167 291q151 90 380 90q145 0 239.5 -41.5t138.5 -103.5q38 -53 38 -108q0 -179 -243 -356q90 -69 151 -163q55 -84 55 -201q0 -124 -85 -229q-74 -91 -195.5 -145.5
t-272.5 -54.5zM437 160q76 1 117 57q45 62 45 125q0 80 -100 161q-153 -124 -153 -244q0 -44 24.5 -71.5t66.5 -27.5zM681 882q121 91 121 179q0 42 -30.5 62.5t-71.5 20.5q-43 0 -81 -23q-43 -26 -43 -77q0 -77 105 -162z" />
    <glyph glyph-name="nine" unicode="9" horiz-adv-x="1094" 
d="M498 1138q-69 0 -113 -56q-49 -64 -49 -193q0 -40 10 -80.5t41.5 -71.5t79.5 -31q45 0 89 33.5t61 117.5q9 41 9 79q0 40 -10 77q-34 125 -118 125zM593 1380q243 0 363 -174q94 -135 94 -343q0 -40 -4 -83q-22 -233 -130.5 -414.5t-274.5 -287.5t-355 -106
q-133 0 -133 91q0 61 96 115q191 107 278 255q55 93 82 221q-100 -96 -231 -96q-112 0 -182.5 50.5t-100.5 130.5q-24 63 -24 133q0 151 76 278q62 105 173.5 167.5t272.5 62.5z" />
    <glyph glyph-name="colon" unicode=":" horiz-adv-x="474" 
d="M209 -54q-39 0 -80 17t-67 53q-22 30 -22 74q0 78 37 128q55 75 161 75q81 0 123 -42q35 -36 35 -92q0 -97 -65 -160q-55 -53 -122 -53zM209 753q-39 0 -80 17t-67 53q-22 30 -22 74q0 78 37 128q55 75 161 75q81 0 123 -42q35 -36 35 -92q0 -97 -65 -160
q-55 -53 -122 -53z" />
    <glyph glyph-name="semicolon" unicode=";" horiz-adv-x="476" 
d="M210 753q-39 0 -80 17t-67 53q-22 30 -22 74q0 78 37 128q55 75 161 75q81 0 123 -42q35 -36 35 -92q0 -97 -65 -160q-55 -53 -122 -53zM82 -339q-14 0 -22 9.5t-8 20.5q0 16 15 38.5t30 43.5q85 118 93 174q-59 5 -104.5 43t-45.5 107q0 72 37 121q57 75 162 75
q81 0 122 -45q33 -36 33 -94q0 -223 -231 -444q-51 -49 -81 -49z" />
    <glyph glyph-name="semicolon" unicode="&#x37e;" horiz-adv-x="476" 
d="M210 753q-39 0 -80 17t-67 53q-22 30 -22 74q0 78 37 128q55 75 161 75q81 0 123 -42q35 -36 35 -92q0 -97 -65 -160q-55 -53 -122 -53zM82 -339q-14 0 -22 9.5t-8 20.5q0 16 15 38.5t30 43.5q85 118 93 174q-59 5 -104.5 43t-45.5 107q0 72 37 121q57 75 162 75
q81 0 122 -45q33 -36 33 -94q0 -223 -231 -444q-51 -49 -81 -49z" />
    <glyph glyph-name="less" unicode="&#x3c;" horiz-adv-x="892" 
d="M737 221q-102 0 -369 124q-144 66 -258 141q-102 66 -102 134q0 81 126.5 160t282.5 153t302 124q53 18 94 18q50 0 50 -45q0 -83 -97 -141q-259 -157 -514 -254q232 -84 470 -228q84 -51 84 -107q0 -15 -7 -31q-20 -48 -62 -48z" />
    <glyph glyph-name="equal" unicode="=" horiz-adv-x="915" 
d="M441 706q-304 0 -371 30q-33 15 -33 59q0 57 43 78q38 18 87 26q159 25 340 25q123 0 231 -9q122 -11 122 -85q0 -59 -42 -79q-93 -45 -377 -45zM412 379q-303 0 -371 30q-33 15 -33 59q0 56 42 77q31 15 94 25q156 26 347 26q158 0 228 -12q44 -7 78 -23t34 -59
q0 -59 -42 -79q-93 -44 -377 -44z" />
    <glyph glyph-name="greater" unicode="&#x3e;" horiz-adv-x="840" 
d="M81 1075q101 0 369 -123q144 -67 258 -142q101 -66 101 -134q0 -80 -126 -159.5t-282 -153.5t-303 -123q-53 -19 -94 -19q-50 0 -50 45q0 83 97 142q260 156 515 253q-233 84 -471 229q-83 50 -83 106q0 15 7 31q20 48 62 48z" />
    <glyph glyph-name="question" unicode="?" horiz-adv-x="956" 
d="M351 -54q-39 0 -80 17q-89 37 -89 134q0 73 37 121q56 75 162 75q81 0 122 -42q36 -38 36 -96q0 -96 -64 -157q-56 -52 -124 -52zM387 390q-98 0 -148 49q-35 35 -35 77q0 55 92 153q47 51 100 118q141 178 141 399q0 125 -88 125q-52 0 -86 -21t-63 -48
q-26 -24 -56.5 -43t-74.5 -19q-42 0 -57 20q-12 15 -12 43q0 48 30 102q26 47 77 91q120 102 319 102q223 0 330 -122q84 -96 84 -238q0 -102 -44 -231q-73 -216 -210 -378q-151 -179 -299 -179z" />
    <glyph glyph-name="at" unicode="@" horiz-adv-x="1825" 
d="M862 -460q-450 0 -665 238q-175 194 -175 511q0 194 65 364q102 265 337 432q255 181 604 181q338 0 515 -206q141 -166 141 -394q0 -46 -4 -81q-23 -179 -106 -319q-88 -148 -204.5 -234t-212.5 -86q-56 0 -93.5 31.5t-60 84.5t-31.5 121q-23 -64 -58.5 -115.5t-85 -82
t-115.5 -30.5q-136 0 -202 131q-52 104 -52 250q0 76 18 149q41 168 126 274q96 119 239 119q49 0 86 -14.5t62.5 -36t40.5 -44.5q15 39 45.5 63.5t90.5 24.5q79 0 103 -41q40 -69 40 -267q0 -227 -59 -422q108 87 170 207q76 146 76 298q0 171 -101 284q-134 149 -429 149
q-148 0 -273.5 -61t-220 -163t-151.5 -228q-72 -159 -72 -323q0 -230 131 -389q172 -208 538 -208q363 0 663 269q58 51 96 92q27 30 46 48t32 18t13 -16q0 -72 -115 -202q-337 -376 -792 -376zM789 128q63 0 121 160q28 78 51 179q30 130 37 205q-36 61 -84 61
q-80 0 -132 -112q-41 -87 -58 -208q-9 -61 -9 -106q0 -179 74 -179z" />
    <glyph glyph-name="A" unicode="A" 
d="M404 649q68 10 133 10l63 1q72 0 131 -8q-25 243 -57 399t-56 192q-124 -172 -214 -594zM170 -35q-58 0 -85.5 20t-36.5 53.5t-9 75.5q0 136 26 304q48 312 112 507q80 250 206 418q151 200 340 200q87 0 155 -46q128 -88 208 -306q70 -194 96 -431q14 -131 14 -246
q0 -70 -4 -124q-18 -220 -63 -314q-52 -107 -177 -107q-73 0 -114.5 25t-59 69.5t-19.5 104.5q-4 173 -15 327q-33 -6 -88 -12q-70 -7 -135 -7q-82 0 -150 11q-34 -204 -53 -378q-15 -144 -148 -144z" />
    <glyph glyph-name="B" unicode="B" horiz-adv-x="1236" 
d="M414 -35q-131 0 -206 53q-97 68 -107 237q-5 79 -5 156q0 216 30 501q27 266 80 408q22 61 68 112q102 111 349 111q208 0 337.5 -110.5t129.5 -257.5q0 -221 -200 -318q120 -56 186 -168q56 -96 56 -207q0 -187 -124 -309q-108 -106 -268 -157t-326 -51zM595 890
q88 44 138 120q57 88 57 175q0 160 -227 160q25 -68 31 -152q4 -70 4 -127q0 -97 -3 -176zM718 299q57 94 57 210q0 57 -20.5 112.5t-65.5 94.5t-101 39q-25 -370 -86 -585q146 16 216 129z" />
    <glyph glyph-name="C" unicode="C" horiz-adv-x="1259" 
d="M630 -35q-147 0 -249 44q-314 136 -314 639q0 178 41 336q63 242 217 391q173 168 443 168q104 0 180 -29q140 -54 206 -183q48 -93 48 -194q0 -87 -32 -148q-25 -46 -59 -46q-51 0 -65 62q-36 153 -92.5 223.5t-140.5 70.5q-72 0 -130 -71.5t-97.5 -198.5t-54.5 -297
q-3 -40 -3 -91q0 -95 8 -156q35 -276 181 -276q85 0 153.5 70.5t130.5 222.5q26 63 77 63q34 0 50 -46q12 -35 12 -83q0 -83 -38 -172q-32 -75 -93 -143q-142 -156 -379 -156z" />
    <glyph glyph-name="D" unicode="D" horiz-adv-x="1424" 
d="M446 -35q-157 0 -253 68.5t-96 265.5q0 72 7 205q24 429 66 680q22 135 78 215q47 66 122 99q120 52 324 52q654 0 654 -593q0 -257 -154 -502q-308 -490 -748 -490zM485 219q96 0 201.5 89.5t183.5 244.5q71 144 94 326q7 60 7 109q0 57 -12 126t-55 133
q-93 134 -314 134q6 -130 6 -257q0 -412 -60 -726q-28 -147 -51 -179z" />
    <glyph glyph-name="E" unicode="E" horiz-adv-x="1081" 
d="M379 -35q-172 0 -231 123q-53 109 -53 392q0 61 1 112q2 106 21 286q16 151 44 275q42 182 104 265t185 104t301 21q81 0 153 -12.5t114 -41t42 -75.5q0 -111 -244 -131q-112 -9 -265 -9q35 -103 37 -238l1 -72q0 -94 -6 -176q20 6 69 14t105.5 14.5t96.5 6.5
q136 0 136 -77q0 -80 -78 -114q-73 -31 -224 -31q-34 0 -64 1t-55 1q-25 -248 -77 -387q189 27 307 27q61 0 105 -8q83 -17 83 -89q0 -54 -46 -83q-86 -54 -325 -82q-136 -16 -237 -16z" />
    <glyph glyph-name="F" unicode="F" horiz-adv-x="991" 
d="M286 -32q-87 0 -124 41q-65 71 -65 415q0 153 12 306q41 527 160 688q62 83 185 104t301 21q81 0 153 -12.5t114 -41t42 -75.5q0 -111 -244 -132q-112 -9 -265 -9q40 -116 42 -251v-78q0 -94 -8 -182q105 17 177 17q50 0 79.5 -13.5t40 -32.5t10.5 -39q0 -63 -69 -96
q-101 -47 -258 -50q-17 -147 -39 -278q-10 -59 -36 -142q-49 -160 -208 -160z" />
    <glyph glyph-name="G" unicode="G" horiz-adv-x="1328" 
d="M623 -35q-146 0 -248 45q-314 137 -314 632q0 192 45 342q72 240 239 390q187 169 458 169q104 0 180 -29q141 -55 206 -182q48 -95 48 -195q0 -88 -32 -148q-25 -46 -59 -46q-51 0 -65 62q-36 153 -92.5 223.5t-141.5 70.5q-107 0 -201.5 -155t-120.5 -412
q-4 -42 -4 -95q0 -178 40 -291q48 -137 150 -137q104 0 162 113q49 96 60 239l-88 -1q-50 0 -79.5 15t-29.5 60q0 43 30.5 63t84.5 29q132 22 209 22q78 0 110 -35.5t36 -96.5q2 -23 2 -49q0 -309 -218 -484q-149 -119 -367 -119z" />
    <glyph glyph-name="H" unicode="H" horiz-adv-x="1464" 
d="M1061 -35q-87 0 -120 74q-27 62 -27 226q0 172 11 345q-129 -27 -242 -27q-66 0 -107 7q-44 -404 -116 -532q-32 -57 -93 -78q-39 -14 -78 -14q-21 0 -62 8t-75 54q-54 72 -54 330q0 306 41 620q45 343 111 446q56 86 167 86q68 0 118 -45q36 -33 51 -103q19 -89 19 -233
q0 -213 -13 -382q120 51 347 63q18 264 69 525q15 79 37 122q43 86 137 86q23 0 60.5 -11t62.5 -61q31 -64 31 -271q0 -290 -41 -670q-41 -369 -96 -480q-43 -85 -138 -85z" />
    <glyph glyph-name="I" unicode="I" horiz-adv-x="732" 
d="M289 -34q-22 0 -62.5 8t-74.5 54q-54 72 -54 330q0 306 41 620q44 343 111 446q55 86 167 86q68 0 117 -45q37 -33 52 -103q18 -89 18 -233q0 -270 -28 -539q-44 -404 -116 -532q-32 -57 -93 -78q-39 -14 -78 -14z" />
    <glyph glyph-name="J" unicode="J" horiz-adv-x="955" 
d="M273 -40q-132 0 -210.5 77t-78.5 220q0 118 43.5 199.5t96.5 81.5q44 0 44 -45q0 -26 -8 -68t-8 -86q0 -38 19 -68.5t59 -30.5q102 0 124 255q9 110 9 220v194q0 224 25 327q10 41 35 73q-71 0 -124 6t-79.5 24.5t-26.5 52.5q0 59 77 94q126 57 384 57q31 0 84 -6
t92.5 -26.5t39.5 -63.5q0 -57 -100 -86q-45 -13 -89 -22q52 -42 82.5 -143t44.5 -225t15 -194.5t1 -96.5q0 -201 -52 -352q-78 -227 -268 -320q-98 -48 -231 -48z" />
    <glyph glyph-name="K" unicode="K" horiz-adv-x="1272" 
d="M292 -37h-5q-71 0 -107 27.5t-50 72.5t-22 98.5t-8 230.5q0 488 95 887q18 75 36 114q46 104 187 104q68 0 104 -27.5t50 -73.5t22 -99q10 -64 10 -243q0 -87 -4 -177q36 110 207 326q124 157 231 259q87 83 171 83q94 0 94 -81q0 -32 -18 -65q-73 -132 -181.5 -270
t-219.5 -245l1 -1q80 -129 154 -344q113 -332 113 -429q0 -50 -51 -92.5t-113 -42.5q-137 0 -298 413q-65 166 -100 319q-45 -483 -119 -642q-47 -101 -179 -102z" />
    <glyph glyph-name="L" unicode="L" horiz-adv-x="985" 
d="M328 -64q-135 0 -193 149q-43 110 -43 274q0 58 6 181q23 552 136 811q82 188 206 188q77 0 113 -28.5t51 -73.5t23 -98q8 -48 8 -175q0 -168 -32 -415t-90 -479q-9 -38 -29 -86q132 24 283 24q114 0 164 -20q43 -17 43 -61q0 -84 -115 -126q-177 -65 -531 -65z" />
    <glyph glyph-name="M" unicode="M" horiz-adv-x="1772" 
d="M1409 -40q-218 0 -218 542q0 77 10 326q-21 -99 -80 -265q-71 -200 -155 -339q-102 -167 -196 -167q-126 0 -208 183q-64 140 -98 361q-25 158 -28 253q-43 -314 -101 -627l-15 -86q-11 -67 -26 -102q-33 -75 -111 -75q-64 0 -88.5 34t-24.5 102q0 55 10 152
q54 571 162 1076q27 123 106 181q42 30 106 30q159 0 252 -174q121 -227 121 -688q0 -111 -7 -181q142 417 336 822q58 122 114 173.5t168 51.5q94 0 142.5 -107.5t54 -235t5.5 -185.5q0 -166 -18 -379q-25 -288 -52 -434.5t-65 -194t-96 -47.5z" />
    <glyph glyph-name="N" unicode="N" horiz-adv-x="1375" 
d="M988 -40q-121 0 -232 167q-90 135 -162 344q-59 171 -79 287q-16 -298 -78 -591q-18 -82 -58 -145q-36 -57 -129 -58q-92 0 -118 56t-31 139.5t-5 168.5q0 147 16 371t56 454q20 117 55 190q50 105 146 105q123 0 246 -193q103 -163 179 -387q68 -201 77 -293
q26 476 94 808q33 160 153 160q116 0 127 -156q4 -58 4 -120q0 -218 -25.5 -531.5t-78.5 -584.5q-11 -56 -26 -97t-45 -67.5t-86 -26.5z" />
    <glyph glyph-name="O" unicode="O" horiz-adv-x="1393" 
d="M706 220q72 0 128 50q106 96 160 318q38 162 38 334q0 30 -3 89t-24 129.5t-62 112t-107 41.5q-130 0 -216 -142q-69 -114 -100 -279q-21 -113 -21 -204q0 -177 44 -302q51 -147 163 -147zM629 -35q-146 0 -248 50q-194 95 -269 317q-51 149 -51 321q0 45 4 88
q31 368 215 578q195 224 546 224q270 0 386 -205q82 -147 82 -382q0 -63 -6 -131q-33 -389 -195 -618q-172 -242 -464 -242z" />
    <glyph glyph-name="P" unicode="P" horiz-adv-x="1227" 
d="M292 -25q-131 0 -161 112q-28 102 -28 346q0 454 79 830q37 180 194 244q119 48 339 48q264 0 389 -147q98 -115 98 -287q0 -133 -63 -272q-50 -111 -134.5 -202t-198 -146t-250.5 -55q-33 -241 -83 -358q-48 -113 -181 -113zM576 602q59 0 115 41q113 83 175 252
q38 105 38 191q0 66 -26 130t-98 108.5t-193 44.5q21 -115 21 -301q0 -205 -32 -466z" />
    <glyph glyph-name="Q" unicode="Q" horiz-adv-x="1400" 
d="M706 220q43 0 81 18q-113 168 -113 233q0 42 27 72q21 24 48 24q85 0 197 -127q28 65 48 148q38 162 38 334q0 128 -27 219q-46 153 -169 153q-130 0 -216 -142q-68 -113 -100 -279q-21 -106 -21 -204q0 -177 44 -302q51 -147 163 -147zM1134 -68q-21 0 -35 3
q-69 15 -165 117q-132 -87 -305 -87q-146 0 -248 50q-194 94 -270 317q-50 146 -50 316q0 48 4 93q31 368 215 578q195 224 546 224q270 0 385 -205q83 -147 83 -382q0 -63 -6 -131q-34 -379 -185 -602q102 -167 102 -239q0 -28 -22 -40t-49 -12z" />
    <glyph glyph-name="R" unicode="R" horiz-adv-x="1279" 
d="M292 -28q-141 0 -167 137q-22 112 -22 324q0 454 78 830q38 180 195 244q119 48 339 48q264 0 389 -147q96 -113 96 -280q0 -408 -330 -543q87 -46 186.5 -181t99.5 -282q0 -37 -18 -67q-32 -55 -108 -55q-64 0 -139 50.5t-194.5 243t-119.5 277.5q0 38 76 96
q34 26 80 63t76 81q92 134 92 283q0 67 -23 122q-26 64 -98 108.5t-193 44.5q17 -93 17 -275q0 -289 -41 -573q-79 -549 -271 -549z" />
    <glyph glyph-name="S" unicode="S" horiz-adv-x="1146" 
d="M576 283q0 56 -43.5 110t-119.5 115t-150 137q-158 162 -158 361q0 34 5 71q22 188 146 315q147 151 399 151q104 0 180 -29q141 -54 207 -182q47 -93 47 -198q0 -84 -32 -145q-25 -46 -58 -46q-52 0 -66 62q-36 153 -92 223.5t-141 70.5q-64 0 -104 -52
q-47 -62 -47 -165q0 -99 63 -175t156 -149q68 -53 128 -113q123 -120 123 -268q0 -179 -120 -289q-147 -138 -399 -138q-104 0 -180 26q-141 50 -207 166q-47 85 -47 181q0 76 32 132q25 42 58 42q52 0 66 -57q36 -139 87 -193.5t136 -54.5q64 0 97.5 24.5t33.5 66.5z" />
    <glyph glyph-name="T" unicode="T" horiz-adv-x="968" 
d="M456 -34q-109 0 -152 101t-43 329q0 417 90 774q19 77 57 135h-128q-109 0 -163 6q-73 8 -73 66q0 48 33 80q60 59 298 75q158 11 439 11q77 0 143 -8q143 -16 143 -87q0 -78 -99 -106q-84 -23 -290 -23q37 -60 45 -145q11 -113 11 -242q0 -422 -92 -764
q-15 -54 -36 -100q-46 -101 -183 -102z" />
    <glyph glyph-name="U" unicode="U" horiz-adv-x="1362" 
d="M636 -30q-432 0 -520 332q-29 108 -29 251q0 99 10 204q29 310 87 526q17 62 43 112t74 79.5t134 29.5q71 0 113 -31q70 -53 70 -155q0 -52 -28 -284q-30 -241 -35 -342q-4 -72 -4 -139q0 -132 20 -230q27 -131 97 -131q215 0 273 974l5 79q8 125 32 181q34 81 130 81
q79 0 118 -66q35 -62 35 -246q0 -399 -72 -695q-127 -530 -553 -530z" />
    <glyph glyph-name="V" unicode="V" horiz-adv-x="1298" 
d="M660 -35q-215 0 -357 230t-181 554q-15 131 -15 245q0 70 4 124q18 220 64 315q51 106 176 106q73 0 114.5 -25t59 -69.5t19.5 -104.5q12 -439 58.5 -729t82.5 -346q155 263 293 1136q23 142 155 142q58 0 85.5 -20t36.5 -53.5t9 -74.5q0 -354 -198 -892t-406 -538z" />
    <glyph glyph-name="W" unicode="W" horiz-adv-x="1902" 
d="M1189 -30q-87 0 -151.5 52t-109 140t-72.5 197q-44 -106 -97.5 -189t-116.5 -131.5t-136 -48.5q-175 0 -275 217q-121 264 -121 721q0 96 6 167q18 218 63 307q52 104 176 104q74 0 115 -24q76 -46 78 -170q9 -488 23 -750q11 -232 39 -279q64 106 115.5 270t67.5 346
q12 134 15 211q3 56 8 103q7 78 65.5 115t150.5 37q97 0 148.5 -40.5t53.5 -116.5q8 -420 21 -677q11 -223 38 -269q74 131 124.5 346t89.5 434q59 335 91.5 401t120.5 66q57 0 84.5 -19.5t36.5 -50.5t9 -66q0 -141 -25 -305q-44 -288 -108 -495q-77 -250 -194 -408
q-144 -195 -333 -195z" />
    <glyph glyph-name="X" unicode="X" horiz-adv-x="1216" 
d="M963 -35q-22 0 -62 11q-64 18 -171 140q-94 107 -213 302q-215 -236 -240 -261q-111 -107 -191 -107q-32 0 -64 19q-46 26 -46 63q0 53 63 133q80 101 331 412q-80 150 -141 323q-75 211 -75 361q0 50 23 90.5t89 67.5q57 24 101 24q73 0 117 -49q36 -41 59 -92
q98 -216 144 -315q68 93 147 206q40 58 75 107q45 65 78 88q24 16 65 16q19 0 42 -5q91 -18 91 -88q0 -37 -22 -90q-53 -129 -145.5 -276t-184.5 -263q50 -104 101 -207q74 -147 142 -295q56 -121 56 -174q0 -71 -86 -118q-43 -23 -83 -23z" />
    <glyph glyph-name="Y" unicode="Y" horiz-adv-x="1147" 
d="M536 -33q-96 0 -132 51.5t-42 126.5q-5 66 -5 138q0 233 55 410q-88 75 -179.5 235.5t-139.5 312.5q-27 86 -27 140q0 79 70 117q60 33 127 33q81 -1 126.5 -32t77.5 -92q63 -118 115.5 -263t68.5 -226q57 54 181 304q66 134 125 230q62 100 177 100q47 0 78 -31
q28 -28 28 -81q0 -63 -88 -239q-76 -150 -176 -288.5t-188 -182.5q18 -55 18 -143q0 -16 -2.5 -80.5t-20.5 -177.5t-37 -185q-21 -78 -67 -127.5t-143 -49.5z" />
    <glyph glyph-name="Z" unicode="Z" horiz-adv-x="1052" 
d="M483 -35h-123q-68 0 -154 6t-154 40q-63 32 -63 102q0 101 150 379q135 251 296 498t254 352q-111 -11 -220 -11q-241 0 -303 36q-31 17 -31 53q0 47 31.5 69.5t101.5 33.5q187 31 383 31q132 0 232 -11q197 -22 197 -149q0 -132 -141 -397q-125 -235 -278 -464
t-257 -351q169 13 255 13q269 0 269 -98q0 -132 -445 -132z" />
    <glyph glyph-name="bracketleft" unicode="[" horiz-adv-x="872" 
d="M317 -282q-133 0 -180 43.5t-63.5 105t-20.5 131.5q-3 62 -3 128q0 227 28 548t90 595q27 118 81 206q59 96 185 111q60 7 132 7q256 0 256 -95q0 -32 -25.5 -56.5t-73.5 -34.5q-102 -20 -204 -20q11 -46 16 -99q4 -45 4 -176q0 -216 -28 -528q-34 -369 -107 -655
q42 5 110 5q171 0 171 -82q0 -67 -131 -102q-122 -32 -237 -32z" />
    <glyph glyph-name="backslash" unicode="\" horiz-adv-x="593" 
d="M484 -87q-51 0 -82 33q-41 44 -71 108q-108 232 -208 534q-92 279 -157 563q-16 68 -16 110q0 31 9 58q14 43 72 43q72 0 118 -98q117 -246 249 -631q174 -505 174 -636q-1 -66 -65 -81q-12 -3 -23 -3z" />
    <glyph glyph-name="bracketright" unicode="]" horiz-adv-x="872" 
d="M555 1593q133 0 180 -43.5t63.5 -105t20.5 -131.5q3 -62 3 -128q0 -227 -28 -548t-90 -595q-27 -118 -81 -206q-59 -96 -185 -111q-60 -7 -132 -7q-256 0 -256 95q0 32 25.5 56.5t73.5 34.5q102 20 204 20q-11 46 -16 99q-4 45 -4 176q0 216 28 528q34 369 107 655
q-42 -5 -110 -5q-171 0 -171 82q0 67 131 102q122 32 237 32z" />
    <glyph glyph-name="asciicircum" unicode="^" horiz-adv-x="900" 
d="M739 763q-121 0 -259 321q-216 -321 -333 -321q-59 0 -83 33q-14 19 -14 45q0 25 22 66q99 189 273 372q82 85 168 85q80 0 143 -89q121 -167 183 -360q11 -35 11 -57q0 -72 -80 -91q-17 -4 -31 -4z" />
    <glyph glyph-name="underscore" unicode="_" horiz-adv-x="923" 
d="M454 -317q-303 0 -371 30q-33 15 -33 59q0 56 42 77q31 15 94 25q156 26 347 26q158 0 228 -12q44 -7 78 -23t34 -59q0 -59 -42 -79q-93 -44 -377 -44z" />
    <glyph glyph-name="grave" unicode="`" horiz-adv-x="472" 
d="M389 1183q-45 0 -124 52.5t-143 120.5q-72 78 -72 132t80 54q46 0 81 -11q71 -23 160 -182q51 -91 51 -130q0 -16 -9 -26t-24 -10z" />
    <glyph glyph-name="a" unicode="a" horiz-adv-x="1292" 
d="M862 -48q-71 0 -118.5 39.5t-75.5 107t-40 152.5q-111 -258 -327 -258q-186 0 -262 147q-59 116 -59 287q0 46 4 93q22 251 137 421q129 189 343 189q62 0 108.5 -18t79 -45.5t50.5 -57.5q20 50 58.5 81t114.5 31q100 0 131 -52q50 -88 50 -335q0 -284 -75 -535
q92 79 197.5 246.5t152.5 280.5q21 52 35.5 76t25 30.5t20.5 6.5q20 0 20 -29q0 -34 -20 -99q-41 -133 -109 -288q-86 -195 -187 -319q-123 -152 -254 -152zM396 202q73 0 156 216t109 451q-44 57 -106 57q-101 0 -163 -122q-56 -108 -78 -262q-10 -73 -10 -134
q0 -206 92 -206z" />
    <glyph glyph-name="b" unicode="b" horiz-adv-x="1288" 
d="M516 147q56 0 101 50q86 94 131 297q31 141 31 253q0 163 -63 163q-45 0 -87.5 -54t-79.5 -138t-67 -176.5t-51 -172.5t-31 -126q46 -96 116 -96zM177 -31q-101 0 -137 68q-27 49 -35 145q-5 68 -5 191q0 184 22 460t82 524q21 87 61 140t157 53q168 0 174 -190
q3 -102 3 -214q0 -119 -9 -250q122 234 321 234q165 0 243 -134q57 -98 57 -246q0 -33 -3 -68q-22 -249 -149 -449q222 136 368 493q21 52 36 76q22 37 45 37q20 0 20 -29q0 -35 -20 -99q-98 -306 -299 -505q-224 -222 -521 -222q-70 0 -116.5 18.5t-74.5 46t-42 56.5
q-16 -34 -40.5 -65t-58.5 -51t-79 -20z" />
    <glyph glyph-name="c" unicode="c" horiz-adv-x="1044" 
d="M513 -46q-254 0 -388.5 159.5t-134.5 374.5q0 318 170.5 499.5t429.5 181.5q186 0 271 -103q60 -74 60 -162q0 -57 -26 -105q-19 -36 -45 -36q-38 0 -52 49q-11 37 -26.5 71t-43.5 56t-77 22q-95 0 -163 -136t-68 -330q0 -306 210 -306q145 0 309 264q96 155 144 273
q21 52 36 76q22 37 45 37q20 0 20 -29q0 -34 -21 -99q-57 -178 -125 -314q-223 -443 -525 -443z" />
    <glyph glyph-name="d" unicode="d" horiz-adv-x="1311" 
d="M881 -48q-198 0 -240 367q-33 -120 -91 -207q-99 -149 -258 -149q-172 0 -255 166q-65 130 -65 305q0 109 22 199q53 215 160 347q122 150 301 150q132 0 213 -87q27 201 49 287q15 60 38 111q20 44 59.5 72t112.5 28q128 -1 157 -99q13 -45 20 -97.5t7 -192.5
q0 -164 -19 -390q-31 -360 -92 -563q92 79 197.5 246.5t152.5 280.5q21 52 35.5 76t25 30.5t21.5 6.5q19 0 19 -28q0 -35 -20 -100q-41 -133 -109 -288q-86 -195 -187 -319q-123 -152 -254 -152zM388 182q73 0 155 184q68 154 105 510q-43 70 -102 70q-101 0 -167 -140
q-53 -113 -73 -264q-11 -81 -11 -134q0 -226 93 -226z" />
    <glyph glyph-name="e" unicode="e" horiz-adv-x="1034" 
d="M527 624q75 0 127.5 82t52.5 175q0 91 -56 91q-62 0 -105.5 -39t-71.5 -103t-43 -139q30 -67 96 -67zM433 -46q-241 0 -347 139.5t-106 354.5q0 320 164.5 520t425.5 200q170 0 249.5 -83.5t79.5 -203.5q0 -175 -116 -282.5t-237 -107.5q-86 0 -134 65q-3 -33 -3 -69
q0 -89 20 -165q37 -143 151 -143q60 0 121 39t118 101.5t106.5 135.5t87 144t60.5 127q21 52 35.5 76t25 30.5t20.5 6.5q20 0 20 -29q0 -34 -21 -99q-169 -528 -433 -681q-131 -76 -287 -76z" />
    <glyph glyph-name="f" unicode="f" horiz-adv-x="689" 
d="M396 -193q57 0 57 147q0 16 -2 63t-18 121t-41 122q-15 -162 -15 -266q0 -42 5 -106.5t14 -80.5zM336 -401q-185 0 -267 206q-69 174 -69 471q0 267 49 591q40 266 90 462q54 209 264 209q173 0 173 -137q0 -152 -91 -597q-36 -173 -66 -349q232 82 347 336
q14 31 24.5 39.5t21.5 8.5q17 0 17 -22q0 -134 -111 -261q-100 -114 -242 -197q57 -82 98 -203q33 -95 33 -213q0 -178 -94 -269q-78 -75 -177 -75z" />
    <glyph glyph-name="g" unicode="g" horiz-adv-x="1281" 
d="M415 -460q-107 0 -171 46q-55 39 -55 116q0 187 207 327q77 52 211 127q12 74 26 190q-100 -208 -307 -208q-173 0 -257 141q-69 115 -69 273q0 9 1 50.5t18 104.5q49 181 156 295q120 128 299 128q65 0 113.5 -17t81 -42t50.5 -51q38 175 204 175q79 0 114.5 -31.5
t47.5 -81.5q25 -111 25 -344q0 -137 -13 -279q166 127 224 267q21 52 36 76q22 37 45 37q19 0 19 -26q0 -66 -45 -163q-83 -179 -298 -340q-58 -321 -220 -533q-182 -237 -443 -237zM421 345q44 0 84 43t73.5 109.5t58.5 139.5t40.5 135.5t18.5 97.5q-40 83 -130 83
q-101 0 -165 -112q-49 -88 -69 -213q-9 -59 -9 -102q0 -181 98 -181zM371 -305q50 0 88 40.5t66 106t47 142.5q-223 -148 -223 -264q0 -25 22 -25z" />
    <glyph glyph-name="h" unicode="h" horiz-adv-x="1287" 
d="M857 -48q-228 0 -228 381q0 158 39 346.5t79 270.5q-148 0 -287 -466q-43 -142 -65 -260q-12 -65 -33 -122q-49 -130 -191 -130q-78 0 -119 58t-49 202q-3 67 -3 137q0 299 43 649q42 340 116 457q49 77 159 77q89 0 129 -55q48 -67 49 -209q0 -166 -22 -409
q74 133 172 210t190 77q225 0 225 -367q0 -155 -37 -383q-20 -123 -48 -217q92 79 197.5 246.5t152.5 280.5q21 52 35.5 76t25 30.5t21.5 6.5q19 0 19 -27q0 -39 -19 -101q-42 -133 -110 -288q-86 -195 -187 -319q-123 -152 -254 -152z" />
    <glyph glyph-name="i" unicode="i" horiz-adv-x="668" 
d="M238 -48q-137 0 -194 156q-44 118 -44 310q0 104 15 223q40 320 117 427q39 53 143 53q98 0 129 -51q47 -79 47 -293q0 -281 -94 -578q92 79 197.5 246.5t152.5 280.5q21 52 35.5 76t25 30.5t20.5 6.5q20 0 20 -29q0 -34 -21 -99q-129 -402 -295 -607
q-123 -152 -254 -152zM284 1198q-38 0 -76 16q-82 33 -82 119q0 88 66 138q57 42 124 42q36 0 75 -15q83 -33 83 -127q0 -61 -34 -104q-54 -69 -156 -69z" />
    <glyph glyph-name="j" unicode="j" horiz-adv-x="644" 
d="M-136 -245q27 0 58 61.5t44 162.5q-124 -101 -124 -198q0 -26 22 -26zM-113 -392q-76 0 -122 25q-80 42 -80 132q0 129 90 226q80 87 199 160q6 164 27 391q31 342 120 487q58 95 165 95q55 0 89 -16.5t50 -54t25 -93.5q21 -132 21 -276q0 -112 -11 -230q162 125 224 272
q21 52 36 76q22 37 45 37q19 0 19 -26q0 -66 -45 -163q-89 -192 -300 -350q-43 -240 -150 -428q-151 -264 -402 -264zM261 1198q-38 0 -76.5 15.5t-61.5 48.5q-19 25 -19 63q0 96 66 146q57 42 123 42q36 0 74.5 -15t62.5 -49q22 -29 22 -75q0 -64 -35 -107
q-54 -69 -156 -69z" />
    <glyph glyph-name="k" unicode="k" horiz-adv-x="1178" 
d="M185 -39h-5q-123 0 -151.5 96.5t-28.5 357.5q0 484 91 909q12 59 36 114q44 103 176 103q123 0 153 -98q31 -103 31 -369q0 -187 -16 -376q74 114 169.5 221.5t187 179t149.5 71.5q73 0 73 -75q0 -73 -80 -179q-68 -91 -154 -170.5t-151 -115.5q82 -72 171.5 -182
t101.5 -177q84 102 163 234.5t116 220.5q21 52 35.5 76t25 30.5t20.5 6.5q20 0 20 -29q0 -34 -21 -99q-58 -179 -136 -345q-65 -138 -116.5 -210t-104 -96.5t-125.5 -24.5q-108 0 -192.5 109t-173.5 343q-19 -163 -56 -314q-17 -72 -35 -111q-45 -100 -173 -101z" />
    <glyph glyph-name="l" unicode="l" horiz-adv-x="681" 
d="M251 -48q-140 0 -202 187q-49 147 -49 388v88q2 164 35 414q40 300 90 412q44 100 176 100q124 0 153 -99q26 -90 26 -285q0 -182 -18 -395q-32 -360 -93 -563q92 79 198 246.5t153 280.5q21 52 35.5 76t25 30.5t20.5 6.5q20 0 20 -29q0 -34 -21 -99q-129 -402 -295 -607
q-123 -152 -254 -152z" />
    <glyph glyph-name="m" unicode="m" horiz-adv-x="1853" 
d="M1422 -48q-228 0 -228 381q0 158 39 345q38 182 79 272q-55 0 -101 -52q-82 -94 -145 -305q-44 -149 -71 -296t-80 -238q-63 -107 -160 -107q-144 0 -144 318q0 128 21 276q29 210 71 358q-48 0 -91 -55q-79 -102 -144 -321q-55 -184 -73 -301q-21 -131 -65 -188
q-52 -68 -156 -68q-74 0 -116 45q-58 60 -58 289q0 125 9 257q3 38 21 173q33 250 101 331q48 57 152 57q79 0 122 -41t51 -113q4 -39 4 -79q0 -34 -3 -68q69 139 164.5 220t192.5 81q75 0 120.5 -36t69 -93.5t30.5 -124.5q73 137 173.5 217t194.5 80q224 0 224 -367
q0 -84 -7 -162q-26 -268 -78 -438q92 79 197.5 246.5t152.5 280.5q22 52 36.5 76t25 30.5t20.5 6.5q20 0 20 -29q0 -35 -20 -99q-41 -130 -110 -288q-84 -193 -186 -319q-123 -152 -255 -152z" />
    <glyph glyph-name="n" unicode="n" horiz-adv-x="1289" 
d="M859 -48q-229 0 -229 381q0 160 39.5 346.5t78.5 270.5q-51 0 -99 -58q-88 -105 -166 -335q-65 -189 -86 -317q-25 -153 -65 -202q-54 -67 -158 -67q-74 0 -116 45q-58 60 -58 289q0 207 30 430q33 250 101 331q48 57 152 57q151 0 171 -143q6 -42 6 -85q0 -24 -2 -49
q74 147 178 233.5t202 86.5q225 0 225 -371q0 -152 -37 -379q-20 -123 -48 -217q92 79 197.5 246.5t152.5 280.5q21 52 35.5 76t25 30.5t20.5 6.5q20 0 20 -29q0 -34 -21 -99q-129 -402 -295 -607q-123 -152 -254 -152z" />
    <glyph glyph-name="o" unicode="o" horiz-adv-x="1167" 
d="M510 176q61 0 107.5 36.5t79 97t51.5 135.5q-115 52 -193 150.5t-102 214.5q-75 -190 -75 -381q0 -43 7.5 -101t38 -105t86.5 -47zM771 587q4 48 4 93q0 206 -70 297q-27 34 -49 34q-45 0 -45 -112q0 -97 45.5 -180.5t114.5 -131.5zM435 -33q-240 0 -352 157
q-93 129 -93 353q0 313 145 516q127 180 330 180q60 0 80 -26q56 26 109 26q170 0 261 -179q69 -137 69 -319q0 -59 -10 -147q159 12 233 198q21 52 35 76q22 37 47 37q19 0 19 -27q0 -39 -21 -101q-50 -152 -139.5 -224t-199.5 -78q-34 -121 -102 -221q-151 -221 -411 -221
z" />
    <glyph glyph-name="p" unicode="p" horiz-adv-x="1293" 
d="M144 -460q-100 0 -136 68q-25 46 -35 145q-6 68 -6 191q0 184 22.5 460t81.5 524q20 85 61 139t157 54q66 0 100.5 -23.5t48 -66t21.5 -95.5q3 -13 6 -107q33 84 82.5 152t116.5 108.5t152 40.5q165 0 243 -134q57 -98 57 -246q0 -33 -3 -68q-22 -249 -149 -449
q222 136 368 493q21 52 36 76q22 37 45 37q20 0 20 -29q0 -35 -21 -99q-97 -306 -298 -505q-224 -222 -521 -222q-117 0 -183 57q-23 -146 -53 -267q-20 -84 -62 -146q-58 -88 -151 -88zM521 147q57 0 102 50q86 95 130 297q31 141 31 253q0 163 -63 163q-50 0 -92.5 -57
t-76 -145t-58.5 -186.5t-40.5 -185t-21.5 -138.5q38 -51 89 -51z" />
    <glyph glyph-name="q" unicode="q" horiz-adv-x="1286" 
d="M946 -268q110 0 110 167q0 122 -50 283q-28 -312 -60 -450zM406 182q88 0 158 200q46 132 115 459q-44 105 -117 105q-98 0 -163 -140q-50 -108 -73 -264q-11 -77 -11 -134q0 -226 91 -226zM928 -460q-321 0 -335 621q-102 -198 -281 -198q-168 0 -249 166
q-63 128 -63 311q0 101 22 193q50 213 157 347q120 150 295 150q77 0 130 -28.5t83.5 -66.5t41.5 -71q78 157 205 157q109 0 143 -61q28 -50 28 -117q0 -78 -26 -197t-45 -285q214 86 329 331q14 30 24.5 38.5t21.5 8.5q17 0 17 -24q0 -125 -104 -249q-110 -131 -281 -226
q158 -214 158 -459q0 -175 -94 -266q-78 -75 -177 -75z" />
    <glyph glyph-name="r" unicode="r" horiz-adv-x="1059" 
d="M170 -29q-106 0 -138 75t-32 276q0 113 12 278q30 403 122 518q48 60 151 60q80 0 123 -42q36 -34 46 -91q8 -48 8 -122q62 113 141.5 178t163.5 65q74 0 113 -38q64 -64 64 -197q0 -74 -19 -163q-28 -135 -52 -166q39 0 89.5 30t87 72t57.5 83q12 23 21.5 34.5t17 14.5
t15.5 3q18 0 18 -24q0 -82 -63 -170q-56 -78 -145 -133t-172 -55q-57 0 -92 33q-68 62 -68 216q0 126 45 237q-44 0 -83 -52q-71 -94 -132 -306q-45 -157 -67 -302q-27 -184 -72 -242q-55 -70 -160 -70z" />
    <glyph glyph-name="s" unicode="s" horiz-adv-x="862" 
d="M191 130q60 0 90 25t30 63q0 35 -31 68q-158 -48 -158 -103q0 -25 19.5 -39t49.5 -14zM292 -63q-122 0 -195.5 32t-104.5 81q-27 41 -27 86q0 143 225 228q-47 38 -93 91q-97 111 -97 280q0 189 127.5 315t339.5 126q67 0 114 -16q79 -28 118 -85q45 -66 45 -152
q0 -66 -25 -114q-19 -36 -46 -36q-37 0 -52 49q-24 79 -58 115q-26 27 -69 27q-47 -1 -80 -37q-49 -53 -49 -135q0 -78 46 -129t115 -95q46 -29 88 -65q210 108 290 224q39 57 53 81q10 18 15 24.5t14 6.5q15 0 15 -19q0 -225 -323 -389q38 -56 38 -146q0 -109 -63 -193
q-54 -72 -146.5 -113.5t-214.5 -41.5z" />
    <glyph glyph-name="t" unicode="t" horiz-adv-x="766" 
d="M286 -48q-257 0 -257 528q0 199 41 538l-38 2q-92 6 -92 68q0 70 152 86q41 188 94.5 242t149.5 54q95 0 137 -73t42 -225q188 -18 188 -84q0 -62 -112 -67l-78 -3q-19 -523 -108 -819q142 79 247.5 246.5t152.5 280.5q21 52 35.5 76t25 30.5t20.5 6.5q20 0 20 -29
q0 -34 -21 -99q-119 -372 -308 -578q-166 -181 -291 -181z" />
    <glyph glyph-name="u" unicode="u" horiz-adv-x="1229" 
d="M798 -48q-127 0 -186 137q-50 116 -52 313q-145 -404 -362 -404q-133 0 -176 189q-21 90 -21 209q0 230 23 386q17 116 59.5 205t153.5 89q80 0 113 -39t33 -152q0 -376 -83 -660q56 0 154 224q76 174 161 432q20 62 45 117q54 123 172 124q101 0 133 -52q47 -79 47 -298
q0 -274 -95 -573q92 79 198 246.5t152 280.5q22 52 36.5 76t25 30.5t20.5 6.5q20 0 20 -29q0 -35 -20 -99q-44 -140 -109 -288q-86 -195 -187 -319q-123 -152 -255 -152z" />
    <glyph glyph-name="v" unicode="v" horiz-adv-x="1042" 
d="M378 -66q-61 0 -119 40q-98 67 -140 156q-89 188 -110 385q-9 81 -9 164q0 209 43 340q15 46 49 75t102 29q140 0 183 -190q47 -211 47 -479q0 -134 -13 -273q85 25 168 347q-39 75 -39 178q0 157 63 295q66 146 201 146q43 0 76 -13q59 -23 59 -119q0 -164 -106 -487
q170 2 248 198q21 52 36 76q22 37 46 37q19 0 19 -27q0 -39 -21 -101q-54 -162 -153 -232.5t-218 -70.5q-82 -210 -177 -331q-113 -143 -235 -143z" />
    <glyph glyph-name="w" unicode="w" horiz-adv-x="1555" 
d="M1140 519q-48 89 -48 250q0 212 54 308q51 89 158 89q73 0 105 -48q24 -36 24 -109q0 -23 -2 -50q-15 -193 -75 -431q162 10 238 198q21 52 35 76q22 37 46 37q20 0 20 -29q0 -35 -22 -99q-52 -157 -145 -229t-196 -74h-10q-65 -205 -160 -330q-109 -144 -249 -144
q-202 0 -275 335q-72 -144 -131 -222q-86 -113 -166 -113q-81 0 -139.5 42.5t-97.5 114.5t-61.5 162.5t-32.5 187.5t-10 191q0 93 6 170q14 180 50.5 257.5t139.5 77.5q55 0 93.5 -23t63 -86t36.5 -182q16 -154 16 -303q0 -91 -7 -181q-13 -158 -28 -222q88 34 179 449
q36 165 74 362q33 170 162 170q121 0 165 -146q28 -93 28 -246q0 -108 -14 -256q-21 -223 -43 -333q121 39 219 379z" />
    <glyph glyph-name="x" unicode="x" horiz-adv-x="1121" 
d="M-58 -56q-28 0 -47.5 16.5t-19.5 40.5q0 43 89 146q79 91 166 181q61 63 98 105q-109 158 -177 309q-59 131 -59 264q0 22 1 43q6 62 42 90.5t86 28.5q111 0 209 -105q71 -76 152 -210q26 -44 50 -80q62 74 119 172q39 68 75 116q70 93 173 93q96 0 96 -72
q0 -67 -64 -178q-100 -174 -255 -339q29 -40 67 -103q91 -151 91 -258q59 44 125.5 146.5t121.5 209.5t79 166q21 52 35.5 76t25.5 30.5t21 6.5q19 0 19 -27q0 -57 -74 -252q-82 -216 -181 -371q-125 -195 -245 -195q-116 0 -217 79q-69 53 -148 150q-15 19 -29 35
q-332 -314 -425 -314z" />
    <glyph glyph-name="y" unicode="y" horiz-adv-x="1171" 
d="M264 -460q-181 0 -181 150q0 151 130 268q117 104 284 198q14 90 40 282q-112 -248 -294 -248q-110 0 -176.5 94t-66.5 279q0 66 8 144q27 302 102 402q33 43 121 43q82 0 108 -41q41 -65 41 -266q0 -219 -59 -452q62 26 156 210q48 93 89 235q32 110 41 165
q15 90 48 137q37 53 175 54q48 0 80.5 -17t48 -58t23.5 -101q19 -137 19 -284q0 -134 -13 -275q167 130 223 267q22 52 36 76q22 37 46 37q18 0 18 -24q0 -70 -44 -165q-84 -180 -299 -340q-54 -323 -218 -533q-185 -237 -486 -237zM262 -305q126 0 201 289
q-223 -148 -223 -264q0 -25 22 -25z" />
    <glyph glyph-name="z" unicode="z" horiz-adv-x="919" 
d="M142 -392q-74 0 -115 25q-67 40 -67 147q0 114 91 212q80 87 199 161q0 116 -47 228.5t-61 144.5q-4 10 -4 22q0 49 79 158q88 118 335 268q-47 35 -95 35q-139 0 -245 -181q-15 -26 -33 -45t-54 -19q-33 0 -51 36q-15 29 -15 71q0 115 102 204q110 95 314 95
q103 0 177 -29.5t113 -71.5q35 -38 35 -74q0 -49 -49 -132q-45 -75 -121.5 -147.5t-176.5 -120.5q142 -76 199 -201q231 152 306 332q22 52 37 76q22 37 45 37q19 0 19 -26q0 -66 -45 -163q-95 -203 -328 -371q4 -27 4 -55q0 -19 -2 -38q-11 -117 -56 -221t-118 -184
t-168 -126.5t-204 -46.5zM138 -245q31 0 57.5 62.5t42.5 158.5q-53 -43 -84 -90q-38 -56 -38 -105q0 -26 22 -26z" />
    <glyph glyph-name="braceleft" unicode="{" horiz-adv-x="976" 
d="M660 -256q-142 0 -233 63q-155 108 -155 486q0 82 -19 136q-31 85 -136 167q-30 24 -48.5 43.5t-18.5 39.5q0 25 24 45.5t57 42.5q43 28 92 64q136 100 136 269q0 513 465 513q37 0 69.5 -15t32.5 -41q0 -18 -14 -29t-38.5 -23t-56.5 -32q-70 -44 -107 -133t-37 -198
q0 -61 -18 -125q-31 -112 -89.5 -204.5t-184.5 -134.5q119 -42 162.5 -134t43.5 -206q1 -131 14.5 -270.5t76.5 -184.5q28 -19 51 -31q45 -24 45 -45q0 -32 -40 -48q-36 -15 -74 -15z" />
    <glyph glyph-name="bar" unicode="|" horiz-adv-x="510" 
d="M172 -347q-86 0 -105 42q-17 35 -17 87v137q0 767 142 1541q13 68 39 109.5t112 41.5t104 -43q13 -34 13 -81v-36q-15 -819 -142 -1646q-10 -67 -35.5 -109.5t-110.5 -42.5z" />
    <glyph glyph-name="braceright" unicode="}" horiz-adv-x="976" 
d="M316 1613q142 0 233 -63q155 -108 155 -486q0 -82 19 -136q31 -85 136 -167q30 -24 48.5 -43.5t18.5 -39.5q0 -25 -24 -45.5t-57 -42.5q-43 -28 -92 -64q-136 -100 -136 -269q0 -513 -465 -513q-37 0 -69.5 15t-32.5 41q0 18 14 29t38.5 23t56.5 32q70 44 107 133t37 198
q0 61 18 125q31 112 89.5 204.5t184.5 134.5q-119 42 -162.5 134t-43.5 206q-1 131 -14.5 270.5t-76.5 184.5q-28 19 -51 31q-45 24 -45 45q0 32 40 48q36 15 74 15z" />
    <glyph glyph-name="asciitilde" unicode="~" horiz-adv-x="941" 
d="M621 485q-131 0 -223 71q-75 58 -108 58q-27 0 -81 -41q-72 -56 -112 -56q-16 0 -28 9q-19 13 -19 43q0 21 10 50q45 135 169 185q46 18 86 18q95 -1 206 -70q90 -56 129 -56q41 0 103 43q56 40 84 40q14 0 26 -7q28 -16 28 -47q0 -8 -5.5 -34t-33.5 -70t-53 -64
q-93 -72 -178 -72z" />
    <glyph glyph-name="exclamdown" unicode="&#xa1;" horiz-adv-x="703" 
d="M434 1168q39 0 80 -17t67 -53q22 -30 22 -74q0 -78 -37 -128q-55 -75 -162 -75q-81 0 -122 42q-35 36 -35 90q0 100 64 162q55 53 123 53zM391 722q74 0 110.5 -28.5t51.5 -73.5q37 -113 37 -346q0 -77 -8 -235.5t-64 -331.5q-24 -73 -71 -102t-152 -29q-78 0 -119 27
q-76 51 -76 326q0 296 77 585q15 57 37 103q48 104 177 105z" />
    <glyph glyph-name="cent" unicode="&#xa2;" horiz-adv-x="1065" 
d="M558 -322q-7 0 -14 4q-40 18 -41 97q0 59 15 183q-178 27 -283 152q-135 159 -135 374q0 251 102 425q81 138 212.5 217t295.5 79q18 0 35 -1l22 93q29 117 73 117q37 0 45 -52q6 -31 6 -69q0 -46 -8 -119q59 -25 98 -72q60 -74 60 -162q0 -57 -26 -105q-19 -36 -45 -36
q-38 0 -52 49q-11 37 -26 71q-14 29 -36 49q-53 -403 -128 -783h12q94 0 195 110q35 38 68 38q20 0 39 -14q23 -17 23 -43q0 -31 -34 -77q-159 -218 -352 -245l-26 -111q-40 -169 -95 -169zM568 290q64 385 127 692q-95 -54 -139 -257q-26 -118 -26 -230q0 -130 38 -205z
" />
    <glyph glyph-name="sterling" unicode="&#xa3;" horiz-adv-x="1107" 
d="M855 -74q-85 0 -197 16q-125 17 -202 17q-129 0 -264 -22q-21 -4 -39 -4q-32 0 -58 15q-45 26 -45 84q0 44 58 129q43 63 85 150q49 103 57 267q-95 8 -138 23q-35 13 -35 50q0 43 40 58.5t91 21.5l42 6q-7 115 -7 171q0 60 4.5 118.5t28 122.5t73 121t130.5 93t201 36
q199 0 301 -102q76 -77 76 -166q0 -48 -22 -71q-18 -19 -60 -19q-45 0 -71.5 19t-49.5 44.5t-53.5 46t-83.5 20.5q-94 0 -103 -120q-2 -33 -2 -67q0 -79 10 -165l6 -69q186 -3 251 -27q34 -13 34 -50q0 -44 -40 -59q-65 -24 -245 -35q-13 -138 -94 -265q-80 -123 -171 -187
q50 13 141.5 20t177.5 7q291 0 291 -145q0 -83 -118 -83z" />
    <glyph glyph-name="currency" unicode="&#xa4;" horiz-adv-x="1072" 
d="M111 193q-22 0 -41.5 20t-19.5 41q0 29 39 84q10 14 98 102q-48 72 -48 167q0 121 93 247q-80 92 -92 111q-28 44 -28 74q0 24 24 47.5t47 23.5q27 0 75 -35q34 -26 106 -99q98 60 201 60q107 0 203 -51q97 87 112 97q51 34 81 34q22 0 41.5 -20t19.5 -41q0 -29 -39 -83
q-9 -12 -98 -102q47 -86 47 -181q0 -123 -84 -242q73 -86 83 -102q29 -44 29 -75q0 -24 -24 -47.5t-48 -23.5q-26 0 -75 37q-32 24 -101 95q-88 -46 -199 -46q-107 0 -201 46q-83 -73 -120 -100q-52 -38 -81 -38zM578 452q97 0 145 120q28 69 28 137q0 27 -7.5 57.5
t-36.5 53t-87 22.5q-107 0 -157 -103q-26 -55 -26 -115q0 -38 13 -77t45.5 -67t82.5 -28z" />
    <glyph glyph-name="yen" unicode="&#xa5;" horiz-adv-x="1271" 
d="M498 -27q-70 0 -115 35q-61 49 -61 217v46q-162 8 -224 31q-41 16 -41 61q0 56 50 76q69 28 240 41q13 68 27 117l-137 8q-151 10 -151 86q0 56 50 77q46 18 110 26q-196 298 -196 454q0 80 65 110q57 27 131 27q125 0 172 -63q70 -95 132 -223t101 -237q116 205 262 409
q82 115 191 115q117 0 117 -88q0 -95 -104 -254q-86 -131 -181 -238q65 -6 108 -22.5t43 -60.5q0 -58 -48 -77t-100.5 -27t-169.5 -16q4 -31 4 -63l-1 -52q180 -7 246 -33q40 -16 40 -60q0 -58 -49 -78q-74 -30 -262 -41q-35 -189 -95 -248q-56 -55 -154 -55z" />
    <glyph glyph-name="section" unicode="&#xa7;" horiz-adv-x="1122" 
d="M462 -300q-86 0 -182 27.5t-158 89.5q-57 57 -57 148q0 47 29 75q25 23 54 23t52.5 -20.5t45.5 -47t46.5 -50t57 -39.5t78.5 -16q44 0 74 30q36 36 36 94q0 81 -65.5 133t-160.5 96q-70 33 -133 72q-129 81 -129 210q0 244 220 342q-98 84 -98 210q0 202 150 314
q129 96 340 96q98 0 194 -31q89 -29 147 -91q54 -56 54 -143q0 -47 -30 -74q-25 -23 -54 -23t-52 20t-47 49q-20 24 -45 48t-57.5 40t-77.5 16q-34 0 -67 -28q-38 -34 -38 -93q0 -73 61 -123t151 -96q70 -36 135 -81q136 -92 136 -231q0 -219 -204 -319q87 -75 87 -221
q0 -112 -71 -213q-61 -86 -168 -139.5t-254 -53.5zM666 438q53 30 53 123q0 57 -57.5 95.5t-148.5 75.5l-55 23q-58 -29 -58 -135q0 -57 55 -90q71 -43 211 -92z" />
    <glyph glyph-name="dieresis" unicode="&#xa8;" horiz-adv-x="864" 
d="M207 1199q-38 0 -76 15q-81 34 -81 120q0 88 66 137q57 43 123 43q36 0 74 -15q85 -33 85 -124q0 -64 -35 -108q-54 -68 -156 -68zM624 1199q-39 0 -77 15q-81 34 -81 120q0 88 66 137q57 43 123 43q36 0 74 -15q85 -33 85 -124q0 -66 -35 -108q-55 -68 -155 -68z" />
    <glyph glyph-name="copyright" unicode="&#xa9;" horiz-adv-x="1536" 
d="M721 -30q-195 0 -348 82t-235 246q-68 138 -68 336q0 36 2 75q17 211 89.5 367t184 259t244.5 154t266 51q166 0 306.5 -90t218.5 -266q65 -148 65 -352q0 -41 -2 -84q-22 -259 -128.5 -432t-265 -259.5t-329.5 -86.5zM726 99q132 0 257.5 76t210.5 220q104 177 104 438
q0 175 -53 310.5t-160 206t-233 70.5q-143 0 -283.5 -87.5t-237.5 -252.5t-116 -398q-2 -28 -2 -55q0 -167 66 -287t188 -180.5t259 -60.5zM761 302q-84 0 -143 25q-181 79 -181 368q0 102 24 194q36 139 124 225q100 97 256 97q60 0 103 -17q81 -31 119 -105
q28 -54 28 -112q0 -50 -19 -85q-14 -27 -34 -27q-29 0 -37 36q-21 88 -53.5 128.5t-80.5 40.5q-42 0 -75.5 -41t-56 -114.5t-31.5 -171.5q-2 -23 -2 -52q0 -55 5 -90q20 -159 104 -159q49 0 88.5 40.5t75.5 128.5q15 36 44 36q20 0 29 -26q7 -20 7 -48q0 -48 -22 -99
q-18 -43 -53 -82q-82 -90 -219 -90z" />
    <glyph glyph-name="guillemotleft" unicode="&#xab;" horiz-adv-x="1208" 
d="M461 202q-82 0 -143 39t-135 100q-133 110 -133 203q0 92 156 226q72 61 153 110q100 60 172 60q77 0 100 -47q8 -18 8 -38q0 -71 -105 -159q-83 -70 -185 -134q50 -30 117 -81.5t93.5 -96.5t26.5 -72q0 -32 -24 -61q-41 -49 -101 -49zM980 202q-83 0 -143.5 39
t-134.5 100q-133 110 -133 203q0 92 156 226q72 61 153 110q100 60 172 60q77 0 100 -47q8 -18 8 -38q0 -71 -105 -159q-84 -70 -185 -134q50 -30 117 -81.5t93.5 -96.5t26.5 -72q0 -32 -24 -61q-41 -49 -101 -49z" />
    <glyph glyph-name="registered" unicode="&#xae;" horiz-adv-x="1536" 
d="M563 306q-81 0 -96 79q-13 65 -13 187q0 261 45 478q22 104 112 140q69 28 196 28q152 0 224 -85q56 -66 56 -165q0 -62 -31 -140q-26 -64 -67.5 -118.5t-92.5 -72.5q39 -23 78 -64.5t64 -91.5q23 -45 23 -88q0 -23 -11 -42q-18 -34 -62 -34q-37 0 -80 31.5t-81.5 78
t-61.5 95.5q-21 44 -21 78t27 65q17 20 43 46q63 62 88 153q11 40 11 88q0 39 -12 71q-15 37 -56.5 62.5t-111.5 25.5q10 -54 10 -158q0 -167 -24 -330q-45 -317 -156 -317zM721 -30q-195 0 -348 82t-235 246q-68 138 -68 336q0 36 2 75q17 211 89.5 367t184 259t244.5 154
t266 51q166 0 306.5 -90t218.5 -266q65 -148 65 -352q0 -41 -2 -84q-22 -259 -128.5 -432t-265 -259.5t-329.5 -86.5zM726 99q132 0 257.5 76t210.5 220q104 177 104 438q0 175 -53 310.5t-160 206t-233 70.5q-143 0 -283.5 -87.5t-237.5 -252.5t-116 -398q-2 -28 -2 -55
q0 -167 66 -287t188 -180.5t259 -60.5z" />
    <glyph glyph-name="degree" unicode="&#xb0;" horiz-adv-x="624" 
d="M242 805q-113 0 -175 70q-58 66 -58 166q0 165 106 271q93 93 212 93q104 0 175.5 -78t71.5 -189l-2 -18q-15 -141 -113 -228t-217 -87zM286 981q58 0 89 44q37 51 37 118q0 39 -18 70q-22 37 -69 37q-61 0 -93 -81q-18 -44 -18 -92q0 -96 72 -96z" />
    <glyph glyph-name="plusminus" unicode="&#xb1;" horiz-adv-x="1002" 
d="M373 215q-8 33 -10 72q-4 74 -4 145q0 47 2 96q-239 2 -319 34q-39 16 -39 61q0 57 48 77q78 32 325 45q15 169 33 253q11 48 34.5 94.5t82.5 46.5q55 0 71.5 -45t19.5 -94q2 -28 2 -101v-150q163 -3 224 -11q52 -7 93 -23t41 -60q0 -58 -49 -77q-86 -35 -324 -46
q-20 -216 -54 -313q46 1 92 1q32 0 86 -1.5t115 -9.5q52 -7 93 -23t41 -60q0 -105 -254 -117q-191 -9 -401 -9q-207 0 -280 32q-39 17 -39 62q0 57 48 77q78 32 202 39q59 3 120 5z" />
    <glyph glyph-name="uni00B2" unicode="&#xb2;" horiz-adv-x="695" 
d="M318 503h-86q-223 3 -223 106q0 55 56 129q43 56 103 119q68 70 126 147q62 83 62 161q0 55 -33 55q-26 0 -43.5 -10t-35.5 -25.5t-42.5 -29.5t-60.5 -14q-71 0 -71 58q0 68 79 133q84 66 224 66q157 0 233 -81q62 -65 62 -156q0 -178 -193 -361q-68 -64 -152 -134
q12 1 103 1q116 0 156 -27q39 -23 39 -51q0 -21 -28 -41q-64 -45 -275 -45z" />
    <glyph glyph-name="uni00B3" unicode="&#xb3;" horiz-adv-x="667" 
d="M221 502q-65 0 -114.5 14.5t-78.5 38.5t-29 52q0 41 49 55.5t132 14.5q52 0 85 23q36 26 36 60q0 63 -125 106q-52 17 -52 51q0 25 29 56q23 24 55 52q41 38 79.5 82.5t38.5 90.5q0 20 -23 20q-29 0 -93 -43q-56 -38 -84 -38q-72 0 -72 59q0 33 22 71q46 75 155 111
q59 20 138 20q77 0 133.5 -30t81.5 -74.5t25 -89.5q0 -71 -56 -137q-49 -59 -69 -69q28 0 96 -76q48 -55 48 -117q0 -86 -57 -161q-50 -66 -139 -104t-211 -38z" />
    <glyph glyph-name="acute" unicode="&#xb4;" horiz-adv-x="472" 
d="M83 1183q-15 0 -24 10t-9 26q0 39 51 130q89 159 160 182q35 11 81 11q80 0 80 -54t-72 -132q-64 -68 -143 -120.5t-124 -52.5z" />
    <glyph glyph-name="mu" unicode="&#xb5;" horiz-adv-x="1229" 
d="M105 -347q-80 0 -98 42q-15 35 -15 87q0 116 4 459.5t37 522.5q36 192 83 262q34 50 121 50q83 0 109 -48q37 -70 37 -263q0 -256 -83 -540q56 0 154 224q76 174 161 432q20 62 45 117q54 123 172 124q101 0 133 -52q47 -79 47 -298q0 -274 -95 -573q92 79 198 246.5
t152 280.5q22 52 36.5 76t25 30.5t20.5 6.5q20 0 20 -29q0 -35 -20 -99q-44 -140 -109 -288q-86 -195 -187 -319q-123 -152 -255 -152q-127 0 -186 137q-50 116 -52 313q-121 -337 -292 -393l-28 -204q-9 -67 -32.5 -109.5t-102.5 -42.5z" />
    <glyph glyph-name="paragraph" unicode="&#xb6;" horiz-adv-x="1220" 
d="M826 -180q-42 0 -61 30q-26 44 -27 146q0 336 22 705.5t75 656.5q-73 -4 -144 -4v-102q0 -216 -23.5 -518.5t-63.5 -558.5q-11 -78 -34.5 -137t-86.5 -60q-60 0 -74 56t-14 172q0 209 17 489q-135 6 -217 65q-145 103 -145 300q0 205 138 344.5t384 139.5q47 0 199 -6
q399 -14 399 -84q0 -2 -2 -23.5t-123 -50.5q4 -87 4 -181q0 -223 -26.5 -540t-75.5 -630q-8 -57 -19.5 -101.5t-35.5 -76t-66 -31.5z" />
    <glyph glyph-name="periodcentered" unicode="&#xb7;" horiz-adv-x="508" 
d="M144 624q-33 0 -68 14.5t-57 45.5q-19 25 -19 63q0 66 31 108q47 64 137 64q69 0 105 -36q30 -30 30 -78q0 -82 -56 -136q-46 -45 -103 -45z" />
    <glyph glyph-name="periodcentered" unicode="&#x2219;" horiz-adv-x="508" 
d="M144 624q-33 0 -68 14.5t-57 45.5q-19 25 -19 63q0 66 31 108q47 64 137 64q69 0 105 -36q30 -30 30 -78q0 -82 -56 -136q-46 -45 -103 -45z" />
    <glyph glyph-name="cedilla" unicode="&#xb8;" horiz-adv-x="504" 
d="M218 -391q-37 0 -78 6q-90 14 -90 57q0 33 30.5 48t68.5 23.5t67 22.5q34 17 34 58q0 85 -79 158q-30 28 -30 38l3 5q13 30 35 30q17 0 57.5 -14t94.5 -50q123 -85 123 -197q0 -81 -65 -135q-58 -49 -171 -50z" />
    <glyph glyph-name="uni00B9" unicode="&#xb9;" horiz-adv-x="600" 
d="M319 497q-104 0 -129 75q-22 64 -22 209q0 212 30 340q-56 -44 -99 -44q-28 0 -46.5 18t-18.5 49q0 47 68 107q57 50 134 89.5t137 39.5q104 0 142 -80q28 -61 28 -223q0 -88 -12 -207q-21 -203 -70 -299q-38 -73 -142 -74z" />
    <glyph glyph-name="guillemotright" unicode="&#xbb;" horiz-adv-x="1208" 
d="M228 940q82 0 143 -39t135 -100q133 -111 133 -203t-156 -226q-72 -61 -153 -110q-100 -60 -172 -60q-77 0 -100 47q-8 18 -8 37q0 72 105 160q83 69 185 134q-50 30 -117 81.5t-93.5 96t-26.5 72.5q0 31 24 60q41 50 101 50zM747 940q82 0 143 -39t134 -100
q134 -111 134 -203t-157 -226q-71 -61 -153 -110q-99 -60 -171 -60q-77 0 -100 47q-8 18 -8 37q0 72 104 160q84 69 186 134q-50 30 -117 81.5t-93.5 96t-26.5 72.5q0 31 24 60q41 50 101 50z" />
    <glyph glyph-name="onequarter" unicode="&#xbc;" horiz-adv-x="1560" 
d="M319 497q-104 0 -129 75q-22 64 -22 209q0 212 30 340q-56 -44 -99 -44q-28 0 -46.5 18t-18.5 49q0 47 68 107q57 50 134 89.5t137 39.5q104 0 142 -80q28 -61 28 -223q0 -88 -12 -207q-21 -203 -70 -299q-38 -73 -142 -74zM352 -86l-12 1q-40 11 -40 54q0 17 2 35
q2 48 79 204q176 355 529 908q127 200 166 242q43 47 74 47q38 0 38 -54q0 -168 -678 -1261q-59 -94 -90.5 -135t-67.5 -41zM1050 341q54 4 89 5l5 154q-70 -116 -94 -159zM1270 0q-53 0 -81 22q-49 38 -51 150q-18 -1 -62 -1q-118 0 -176 9q-112 19 -112 100q0 37 60 122
q151 215 318 391q77 81 176 81q79 0 102 -38.5t29 -89.5q7 -67 7 -136q0 -126 -21 -275q84 -13 84 -63q0 -27 -34 -48.5t-73 -28.5q-8 -44 -14 -64q-13 -48 -42.5 -89t-109.5 -42z" />
    <glyph glyph-name="onehalf" unicode="&#xbd;" horiz-adv-x="1583" 
d="M319 497q-104 0 -129 75q-22 64 -22 209q0 212 30 340q-56 -44 -99 -44q-28 0 -46.5 18t-18.5 49q0 47 68 107q57 50 134 89.5t137 39.5q104 0 142 -80q28 -61 28 -223q0 -88 -12 -207q-21 -203 -70 -299q-38 -73 -142 -74zM352 -86l-12 1q-40 11 -40 54q0 17 2 35
q2 48 79 204q176 355 529 908q127 200 166 242q43 47 74 47q38 0 38 -54q0 -168 -678 -1261q-59 -94 -90.5 -135t-67.5 -41zM1206 0h-86q-223 3 -223 106q0 55 56 129q43 56 103 119q68 70 126 147q62 83 62 161q0 55 -33 55q-26 0 -43.5 -10t-35.5 -25.5t-42.5 -29.5
t-60.5 -14q-71 0 -71 58q0 68 79 133q84 66 224 66q157 0 233 -81q62 -65 62 -156q0 -178 -193 -361q-68 -64 -152 -134q12 1 103 1q116 0 156 -27q39 -23 39 -51q0 -21 -28 -41q-64 -45 -275 -45z" />
    <glyph glyph-name="threequarters" unicode="&#xbe;" horiz-adv-x="1605" 
d="M221 502q-65 0 -114.5 14.5t-78.5 38.5t-29 52q0 41 49 55.5t132 14.5q52 0 85 23q36 26 36 60q0 63 -125 106q-52 17 -52 51q0 25 29 56q23 24 55 52q41 38 79.5 82.5t38.5 90.5q0 20 -23 20q-29 0 -93 -43q-56 -38 -84 -38q-72 0 -72 59q0 33 22 71q46 75 155 111
q59 20 138 20q77 0 133.5 -30t81.5 -74.5t25 -89.5q0 -71 -56 -137q-49 -59 -69 -69q28 0 96 -76q48 -55 48 -117q0 -86 -57 -161q-50 -66 -139 -104t-211 -38zM419 -86l-12 1q-40 11 -40 54q0 17 2 35q2 48 79 204q176 355 529 908q127 200 166 242q43 47 74 47
q38 0 38 -54q0 -168 -678 -1261q-59 -94 -90.5 -135t-67.5 -41zM1095 341q54 4 89 5l5 154q-70 -116 -94 -159zM1315 0q-53 0 -81 22q-49 38 -51 150q-18 -1 -62 -1q-118 0 -176 9q-112 19 -112 100q0 37 60 122q151 215 318 391q77 81 176 81q79 0 102 -38.5t29 -89.5
q7 -67 7 -136q0 -126 -21 -275q84 -13 84 -63q0 -27 -34 -48.5t-73 -28.5q-8 -44 -14 -64q-13 -48 -42.5 -89t-109.5 -42z" />
    <glyph glyph-name="questiondown" unicode="&#xbf;" horiz-adv-x="956" 
d="M689 1168q39 0 80 -17q88 -37 88 -134q0 -73 -36 -120q-56 -76 -162 -76q-81 0 -122 42q-37 38 -37 96q0 96 65 157q56 52 124 52zM653 724q98 0 148 -49q35 -35 35 -77q0 -55 -92 -153q-47 -51 -100 -118q-142 -178 -142 -399q0 -125 89 -125q52 0 86 21t63 48
q26 24 56.5 43t74.5 19q42 0 57 -20q12 -15 12 -43q0 -48 -30 -102q-26 -47 -78 -91q-119 -102 -318 -102q-223 0 -331 123q-83 95 -83 237q0 102 44 232q73 215 210 378q151 178 299 178z" />
    <glyph glyph-name="Agrave" unicode="&#xc0;" 
d="M404 649q68 10 133 10l63 1q72 0 131 -8q-25 243 -57 399t-56 192q-124 -172 -214 -594zM170 -35q-58 0 -85.5 20t-36.5 53.5t-9 75.5q0 136 26 304q48 312 112 507q80 250 206 418q151 200 340 200q87 0 155 -46q128 -88 208 -306q70 -194 96 -431q14 -131 14 -246
q0 -70 -4 -124q-18 -220 -63 -314q-52 -107 -177 -107q-73 0 -114.5 25t-59 69.5t-19.5 104.5q-4 173 -15 327q-33 -6 -88 -12q-70 -7 -135 -7q-82 0 -150 11q-34 -204 -53 -378q-15 -144 -148 -144zM748 1558q-45 0 -124 52.5t-143 120.5q-73 78 -73 132t81 54q46 0 81 -11
q71 -23 160 -182q51 -91 51 -130q0 -16 -9 -26t-24 -10z" />
    <glyph glyph-name="Aacute" unicode="&#xc1;" 
d="M404 649q68 10 133 10l63 1q72 0 131 -8q-25 243 -57 399t-56 192q-124 -172 -214 -594zM170 -35q-58 0 -85.5 20t-36.5 53.5t-9 75.5q0 136 26 304q48 312 112 507q80 250 206 418q151 200 340 200q87 0 155 -46q128 -88 208 -306q70 -194 96 -431q14 -131 14 -246
q0 -70 -4 -124q-18 -220 -63 -314q-52 -107 -177 -107q-73 0 -114.5 25t-59 69.5t-19.5 104.5q-4 173 -15 327q-33 -6 -88 -12q-70 -7 -135 -7q-82 0 -150 11q-34 -204 -53 -378q-15 -144 -148 -144zM688 1558q-15 0 -24 10t-9 26q0 39 51 130q89 159 160 182q35 11 81 11
q80 0 80 -54t-72 -132q-64 -68 -143 -120.5t-124 -52.5z" />
    <glyph glyph-name="Acircumflex" unicode="&#xc2;" 
d="M404 649q68 10 133 10l63 1q72 0 131 -8q-25 243 -57 399t-56 192q-124 -172 -214 -594zM170 -35q-58 0 -85.5 20t-36.5 53.5t-9 75.5q0 136 26 304q48 312 112 507q80 250 206 418q151 200 340 200q87 0 155 -46q128 -88 208 -306q70 -194 96 -431q14 -131 14 -246
q0 -70 -4 -124q-18 -220 -63 -314q-52 -107 -177 -107q-73 0 -114.5 25t-59 69.5t-19.5 104.5q-4 173 -15 327q-33 -6 -88 -12q-70 -7 -135 -7q-82 0 -150 11q-34 -204 -53 -378q-15 -144 -148 -144zM1018 1558q-47 0 -120 44t-134 105q-72 -61 -152.5 -105t-127.5 -44
q-19 0 -29 10.5t-10 26.5q0 40 78 129q135 155 190 178q34 15 69 15q75 0 123.5 -57t102.5 -135.5t54 -126.5q0 -18 -13 -29t-31 -11z" />
    <glyph glyph-name="Atilde" unicode="&#xc3;" 
d="M404 649q68 10 133 10l63 1q72 0 131 -8q-25 243 -57 399t-56 192q-124 -172 -214 -594zM170 -35q-58 0 -85.5 20t-36.5 53.5t-9 75.5q0 136 26 304q48 312 112 507q80 250 206 418q151 200 340 200q87 0 155 -46q128 -88 208 -306q70 -194 96 -431q14 -131 14 -246
q0 -70 -4 -124q-18 -220 -63 -314q-52 -107 -177 -107q-73 0 -114.5 25t-59 69.5t-19.5 104.5q-4 173 -15 327q-33 -6 -88 -12q-70 -7 -135 -7q-82 0 -150 11q-34 -204 -53 -378q-15 -144 -148 -144zM467 1607q-37 0 -37 59q0 129 104 185q41 23 84 23q39 0 78 -18
q28 -12 63 -31q69 -38 98 -38q33 0 76 43q37 36 62 36q8 0 17 -4q27 -14 27 -49q0 -38 -16.5 -75.5t-33.5 -56.5q-64 -70 -133 -70q-5 0 -44.5 3t-118.5 48q-62 36 -86 36t-61 -38q-52 -53 -79 -53z" />
    <glyph glyph-name="Adieresis" unicode="&#xc4;" 
d="M404 649q68 10 133 10l63 1q72 0 131 -8q-25 243 -57 399t-56 192q-124 -172 -214 -594zM170 -35q-58 0 -85.5 20t-36.5 53.5t-9 75.5q0 136 26 304q48 312 112 507q80 250 206 418q151 200 340 200q87 0 155 -46q128 -88 208 -306q70 -194 96 -431q14 -131 14 -246
q0 -70 -4 -124q-18 -220 -63 -314q-52 -107 -177 -107q-73 0 -114.5 25t-59 69.5t-19.5 104.5q-4 173 -15 327q-33 -6 -88 -12q-70 -7 -135 -7q-82 0 -150 11q-34 -204 -53 -378q-15 -144 -148 -144zM500 1574q-38 0 -76 15q-81 34 -81 120q0 88 66 137q57 43 123 43
q36 0 74 -15q85 -33 85 -124q0 -64 -35 -108q-54 -68 -156 -68zM917 1574q-39 0 -77 15q-81 34 -81 120q0 88 66 137q57 43 123 43q36 0 74 -15q85 -33 85 -124q0 -66 -35 -108q-55 -68 -155 -68z" />
    <glyph glyph-name="Aring" unicode="&#xc5;" 
d="M404 649q68 10 133 10l63 1q72 0 131 -8q-25 243 -57 399t-56 192q-124 -172 -214 -594zM712 1610q36 0 66 22q36 25 36 77q0 43 -27.5 63t-56.5 20q-35 0 -66 -25q-36 -29 -36 -77q0 -41 27 -60.5t57 -19.5zM842 1518q19 -9 36 -21q128 -88 208 -306q70 -194 96 -431
q14 -131 14 -246q0 -70 -4 -124q-18 -220 -63 -314q-52 -107 -177 -107q-73 0 -114.5 25t-59 69.5t-19.5 104.5q-4 173 -15 327q-33 -6 -88 -12q-70 -7 -135 -7q-82 0 -150 11q-34 -204 -53 -378q-15 -144 -148 -144q-58 0 -85.5 20t-36.5 53.5t-9 75.5q0 136 26 304
q48 312 112 507q80 250 206 418q92 122 198 169q-96 47 -96 161q0 124 88 187q79 57 170 57q49 0 102 -21t81.5 -74t28.5 -117q0 -132 -113 -187z" />
    <glyph glyph-name="AE" unicode="&#xc6;" horiz-adv-x="1760" 
d="M421 725q57 7 112 10q123 9 188 11q-21 180 -47 305q-32 156 -56 192q-113 -156 -197 -518zM1058 -35q-39 0 -72 6q-16 -2 -34 -2q-73 0 -114 25q-75 45 -79 174q-5 202 -21 405q-188 -27 -355 -27q-42 -228 -65 -437q-15 -144 -148 -144q-58 0 -85.5 20t-36.5 53.5
t-9 75.5q0 136 26 304q48 312 112 507q80 250 206 418q151 200 340 200q130 0 230 -113q62 72 176 92q123 21 301 21q81 0 153 -12.5t114 -41t42 -75.5q0 -111 -244 -131q-112 -9 -265 -9q35 -103 37 -238l1 -72q0 -94 -6 -176q20 6 69 14t105.5 14.5t96.5 6.5
q136 0 136 -77q0 -80 -79 -114q-72 -31 -223 -31q-34 0 -64 1t-55 1q-25 -248 -77 -387q189 27 307 27q61 0 104 -8q83 -17 83 -89q0 -54 -46 -83q-85 -54 -324 -82q-136 -16 -237 -16z" />
    <glyph glyph-name="Ccedilla" unicode="&#xc7;" horiz-adv-x="1259" 
d="M527 -29q-82 10 -146 38q-314 136 -314 639q0 178 41 336q63 242 217 391q173 168 443 168q104 0 180 -29q140 -54 206 -183q48 -93 48 -194q0 -87 -32 -148q-25 -46 -59 -46q-51 0 -65 62q-36 153 -92.5 223.5t-140.5 70.5q-72 0 -130 -71.5t-97.5 -198.5t-54.5 -297
q-3 -40 -3 -91q0 -95 8 -156q35 -276 181 -276q85 0 153.5 70.5t130.5 222.5q26 63 77 63q34 0 50 -46q12 -35 12 -83q0 -83 -38 -172q-32 -75 -93 -143q-119 -131 -305 -152q95 -77 95 -175q0 -81 -65 -135q-58 -49 -171 -50q-37 0 -78 6q-91 14 -91 57q0 33 31 48t69 23.5
t67 22.5q34 17 34 58q0 79 -68 147z" />
    <glyph glyph-name="Egrave" unicode="&#xc8;" horiz-adv-x="1081" 
d="M379 -35q-172 0 -231 123q-53 109 -53 392q0 61 1 112q2 106 21 286q16 151 44 275q42 182 104 265t185 104t301 21q81 0 153 -12.5t114 -41t42 -75.5q0 -111 -244 -131q-112 -9 -265 -9q35 -103 37 -238l1 -72q0 -94 -6 -176q20 6 69 14t105.5 14.5t96.5 6.5
q136 0 136 -77q0 -80 -78 -114q-73 -31 -224 -31q-34 0 -64 1t-55 1q-25 -248 -77 -387q189 27 307 27q61 0 105 -8q83 -17 83 -89q0 -54 -46 -83q-86 -54 -325 -82q-136 -16 -237 -16zM669 1558q-45 0 -124 52.5t-143 120.5q-73 78 -73 132t81 54q46 0 81 -11
q70 -23 160 -182q51 -91 51 -130q0 -16 -9 -26t-24 -10z" />
    <glyph glyph-name="Eacute" unicode="&#xc9;" horiz-adv-x="1081" 
d="M379 -35q-172 0 -231 123q-53 109 -53 392q0 61 1 112q2 106 21 286q16 151 44 275q42 182 104 265t185 104t301 21q81 0 153 -12.5t114 -41t42 -75.5q0 -111 -244 -131q-112 -9 -265 -9q35 -103 37 -238l1 -72q0 -94 -6 -176q20 6 69 14t105.5 14.5t96.5 6.5
q136 0 136 -77q0 -80 -78 -114q-73 -31 -224 -31q-34 0 -64 1t-55 1q-25 -248 -77 -387q189 27 307 27q61 0 105 -8q83 -17 83 -89q0 -54 -46 -83q-86 -54 -325 -82q-136 -16 -237 -16zM563 1558q-15 0 -24.5 10t-9.5 26q0 39 52 130q89 159 160 182q35 11 81 11
q80 0 80 -54t-72 -132q-64 -68 -143 -120.5t-124 -52.5z" />
    <glyph glyph-name="Ecircumflex" unicode="&#xca;" horiz-adv-x="1081" 
d="M379 -35q-172 0 -231 123q-53 109 -53 392q0 61 1 112q2 106 21 286q16 151 44 275q42 182 104 265t185 104t301 21q81 0 153 -12.5t114 -41t42 -75.5q0 -111 -244 -131q-112 -9 -265 -9q35 -103 37 -238l1 -72q0 -94 -6 -176q20 6 69 14t105.5 14.5t96.5 6.5
q136 0 136 -77q0 -80 -78 -114q-73 -31 -224 -31q-34 0 -64 1t-55 1q-25 -248 -77 -387q189 27 307 27q61 0 105 -8q83 -17 83 -89q0 -54 -46 -83q-86 -54 -325 -82q-136 -16 -237 -16zM927 1558q-47 0 -120 44t-134 105q-72 -61 -152.5 -105t-127.5 -44q-19 0 -29 10.5
t-10 26.5q0 40 78 129q135 155 190 178q34 15 69 15q75 0 123.5 -57t102.5 -135.5t54 -126.5q0 -18 -13 -29t-31 -11z" />
    <glyph glyph-name="Edieresis" unicode="&#xcb;" horiz-adv-x="1081" 
d="M379 -35q-172 0 -231 123q-53 109 -53 392q0 61 1 112q2 106 21 286q16 151 44 275q42 182 104 265t185 104t301 21q81 0 153 -12.5t114 -41t42 -75.5q0 -111 -244 -131q-112 -9 -265 -9q35 -103 37 -238l1 -72q0 -94 -6 -176q20 6 69 14t105.5 14.5t96.5 6.5
q136 0 136 -77q0 -80 -78 -114q-73 -31 -224 -31q-34 0 -64 1t-55 1q-25 -248 -77 -387q189 27 307 27q61 0 105 -8q83 -17 83 -89q0 -54 -46 -83q-86 -54 -325 -82q-136 -16 -237 -16zM438 1574q-38 0 -76 15q-81 34 -81 120q0 88 66 137q57 43 123 43q36 0 74 -15
q85 -33 85 -124q0 -64 -35 -108q-54 -68 -156 -68zM855 1574q-39 0 -77 15q-81 34 -81 120q0 88 66 137q57 43 123 43q36 0 74 -15q85 -33 85 -124q0 -66 -35 -108q-55 -68 -155 -68z" />
    <glyph glyph-name="Igrave" unicode="&#xcc;" horiz-adv-x="732" 
d="M289 -34q-22 0 -62.5 8t-74.5 54q-54 72 -54 330q0 306 41 620q44 343 111 446q55 86 167 86q68 0 117 -45q37 -33 52 -103q18 -89 18 -233q0 -270 -28 -539q-44 -404 -116 -532q-32 -57 -93 -78q-39 -14 -78 -14zM442 1558q-45 0 -124 52.5t-143 120.5q-72 78 -72 132
t80 54q46 0 81 -11q71 -23 160 -182q51 -91 51 -130q0 -16 -9 -26t-24 -10z" />
    <glyph glyph-name="Iacute" unicode="&#xcd;" horiz-adv-x="732" 
d="M289 -34q-22 0 -62.5 8t-74.5 54q-54 72 -54 330q0 306 41 620q44 343 111 446q55 86 167 86q68 0 117 -45q37 -33 52 -103q18 -89 18 -233q0 -270 -28 -539q-44 -404 -116 -532q-32 -57 -93 -78q-39 -14 -78 -14zM345 1558q-15 0 -24 10t-9 26q0 39 51 130
q89 159 160 182q35 11 81 11q81 0 81 -54t-73 -132q-64 -68 -143 -120.5t-124 -52.5z" />
    <glyph glyph-name="Icircumflex" unicode="&#xce;" horiz-adv-x="732" 
d="M289 -34q-22 0 -62.5 8t-74.5 54q-54 72 -54 330q0 306 41 620q44 343 111 446q55 86 167 86q68 0 117 -45q37 -33 52 -103q18 -89 18 -233q0 -270 -28 -539q-44 -404 -116 -532q-32 -57 -93 -78q-39 -14 -78 -14zM692 1558q-47 0 -120 44t-134 105q-72 -61 -152.5 -105
t-127.5 -44q-19 0 -29 10.5t-10 26.5q0 40 77 129q136 155 190 178q35 15 70 15q75 0 123.5 -57t102.5 -135.5t54 -126.5q0 -18 -13 -29t-31 -11z" />
    <glyph glyph-name="Idieresis" unicode="&#xcf;" horiz-adv-x="732" 
d="M289 -34q-22 0 -62.5 8t-74.5 54q-54 72 -54 330q0 306 41 620q44 343 111 446q55 86 167 86q68 0 117 -45q37 -33 52 -103q18 -89 18 -233q0 -270 -28 -539q-44 -404 -116 -532q-32 -57 -93 -78q-39 -14 -78 -14zM215 1574q-38 0 -76 15q-81 34 -81 120q0 88 66 137
q57 43 123 43q36 0 74 -15q85 -33 85 -124q0 -64 -35 -108q-54 -68 -156 -68zM632 1574q-39 0 -77 15q-81 34 -81 120q0 88 66 137q57 43 123 43q36 0 74 -15q85 -33 85 -124q0 -66 -35 -108q-55 -68 -155 -68z" />
    <glyph glyph-name="Eth" unicode="&#xd0;" horiz-adv-x="1424" 
d="M574 659q-15 -138 -38 -261q-28 -147 -51 -179q96 0 201.5 89.5t183.5 244.5q71 144 94 326q7 60 7 109q0 57 -12 126t-55 133q-93 134 -314 134q6 -130 6 -257q0 -137 -7 -263q34 -2 57 -7q39 -7 68.5 -23t29.5 -59q0 -59 -37 -79q-43 -23 -133 -34zM128 837
q18 203 42 347q22 135 78 215q47 66 122 99q120 52 324 52q654 0 654 -593q0 -257 -154 -502q-308 -490 -748 -490q-157 0 -253 68.5t-96 265.5q0 72 7 205q5 83 10 159q-40 6 -59 16q-29 15 -29 59q0 56 37 77q23 13 65 22z" />
    <glyph glyph-name="Ntilde" unicode="&#xd1;" horiz-adv-x="1375" 
d="M988 -40q-121 0 -232 167q-90 135 -162 344q-59 171 -79 287q-16 -298 -78 -591q-18 -82 -58 -145q-36 -57 -129 -58q-92 0 -118 56t-31 139.5t-5 168.5q0 147 16 371t56 454q20 117 55 190q50 105 146 105q123 0 246 -193q103 -163 179 -387q68 -201 77 -293
q26 476 94 808q33 160 153 160q116 0 127 -156q4 -58 4 -120q0 -218 -25.5 -531.5t-78.5 -584.5q-11 -56 -26 -97t-45 -67.5t-86 -26.5zM502 1586q-36 0 -36 59q0 129 103 185q42 23 85 23q38 0 78 -18q28 -12 62 -31q70 -38 99 -38q33 0 76 43q36 36 62 36q8 0 16 -4
q28 -14 28 -49q0 -38 -16.5 -75.5t-33.5 -56.5q-65 -70 -134 -70q-4 0 -43.5 3t-118.5 48q-62 36 -86 36t-61 -38q-52 -53 -80 -53z" />
    <glyph glyph-name="Ograve" unicode="&#xd2;" horiz-adv-x="1393" 
d="M706 220q72 0 128 50q106 96 160 318q38 162 38 334q0 30 -3 89t-24 129.5t-62 112t-107 41.5q-130 0 -216 -142q-69 -114 -100 -279q-21 -113 -21 -204q0 -177 44 -302q51 -147 163 -147zM629 -35q-146 0 -248 50q-194 95 -269 317q-51 149 -51 321q0 45 4 88
q31 368 215 578q195 224 546 224q270 0 386 -205q82 -147 82 -382q0 -63 -6 -131q-33 -389 -195 -618q-172 -242 -464 -242zM833 1558q-45 0 -124 52.5t-143 120.5q-73 78 -73 132t81 54q46 0 81 -11q70 -23 160 -182q51 -91 51 -130q0 -16 -9 -26t-24 -10z" />
    <glyph glyph-name="Oacute" unicode="&#xd3;" horiz-adv-x="1393" 
d="M706 220q72 0 128 50q106 96 160 318q38 162 38 334q0 30 -3 89t-24 129.5t-62 112t-107 41.5q-130 0 -216 -142q-69 -114 -100 -279q-21 -113 -21 -204q0 -177 44 -302q51 -147 163 -147zM629 -35q-146 0 -248 50q-194 95 -269 317q-51 149 -51 321q0 45 4 88
q31 368 215 578q195 224 546 224q270 0 386 -205q82 -147 82 -382q0 -63 -6 -131q-33 -389 -195 -618q-172 -242 -464 -242zM751 1558q-15 0 -24 10t-9 26q0 39 51 130q90 159 160 182q35 11 81 11q81 0 81 -54t-73 -132q-64 -68 -143 -120.5t-124 -52.5z" />
    <glyph glyph-name="Ocircumflex" unicode="&#xd4;" horiz-adv-x="1393" 
d="M706 220q72 0 128 50q106 96 160 318q38 162 38 334q0 30 -3 89t-24 129.5t-62 112t-107 41.5q-130 0 -216 -142q-69 -114 -100 -279q-21 -113 -21 -204q0 -177 44 -302q51 -147 163 -147zM629 -35q-146 0 -248 50q-194 95 -269 317q-51 149 -51 321q0 45 4 88
q31 368 215 578q195 224 546 224q270 0 386 -205q82 -147 82 -382q0 -63 -6 -131q-33 -389 -195 -618q-172 -242 -464 -242zM1110 1558q-47 0 -120 44t-134 105q-72 -61 -152.5 -105t-127.5 -44q-19 0 -29 10.5t-10 26.5q0 40 78 129q135 155 190 178q34 15 69 15
q75 0 123.5 -57t102.5 -135.5t54 -126.5q0 -18 -13 -29t-31 -11z" />
    <glyph glyph-name="Otilde" unicode="&#xd5;" horiz-adv-x="1393" 
d="M706 220q72 0 128 50q106 96 160 318q38 162 38 334q0 30 -3 89t-24 129.5t-62 112t-107 41.5q-130 0 -216 -142q-69 -114 -100 -279q-21 -113 -21 -204q0 -177 44 -302q51 -147 163 -147zM629 -35q-146 0 -248 50q-194 95 -269 317q-51 149 -51 321q0 45 4 88
q31 368 215 578q195 224 546 224q270 0 386 -205q82 -147 82 -382q0 -63 -6 -131q-33 -389 -195 -618q-172 -242 -464 -242zM551 1579q-37 0 -37 59q0 129 103 185q42 23 85 23q39 0 78 -18q28 -12 63 -31q69 -38 98 -38q33 0 76 43q36 36 62 36q8 0 17 -4q27 -14 27 -49
q0 -38 -16.5 -75.5t-33.5 -56.5q-65 -70 -134 -70q-4 0 -43.5 3t-118.5 48q-62 36 -86 36t-61 -38q-52 -53 -79 -53z" />
    <glyph glyph-name="Odieresis" unicode="&#xd6;" horiz-adv-x="1393" 
d="M706 220q72 0 128 50q106 96 160 318q38 162 38 334q0 30 -3 89t-24 129.5t-62 112t-107 41.5q-130 0 -216 -142q-69 -114 -100 -279q-21 -113 -21 -204q0 -177 44 -302q51 -147 163 -147zM629 -35q-146 0 -248 50q-194 95 -269 317q-51 149 -51 321q0 45 4 88
q31 368 215 578q195 224 546 224q270 0 386 -205q82 -147 82 -382q0 -63 -6 -131q-33 -389 -195 -618q-172 -242 -464 -242zM612 1574q-38 0 -76 15q-81 34 -81 120q0 88 66 137q57 43 123 43q36 0 74 -15q85 -33 85 -124q0 -64 -35 -108q-54 -68 -156 -68zM1029 1574
q-39 0 -77 15q-81 34 -81 120q0 88 66 137q57 43 123 43q36 0 74 -15q85 -33 85 -124q0 -66 -35 -108q-55 -68 -155 -68z" />
    <glyph glyph-name="multiply" unicode="&#xd7;" horiz-adv-x="981" 
d="M121 133q-28 0 -49.5 28.5t-21.5 58.5q0 50 57 138q42 65 224 279q-221 305 -221 390q0 38 31 74q27 31 56 31q42 0 108 -66q82 -82 200 -233q183 198 244 249q74 62 112 62q27 0 48.5 -28t21.5 -59q0 -50 -59 -136q-77 -111 -222 -279q221 -305 221 -392q0 -37 -31 -73
q-28 -32 -56 -32q-41 0 -108 68q-82 81 -200 232q-175 -191 -243 -249q-74 -63 -112 -63z" />
    <glyph glyph-name="Oslash" unicode="&#xd8;" horiz-adv-x="1393" 
d="M706 220q72 0 128 50q106 96 160 318q38 162 38 334q0 30 -3 89q-4 73 -29 146q-55 -231 -130 -458q-89 -270 -186 -477q11 -2 22 -2zM523 434q38 127 99 305q116 337 218 555h-4q-130 0 -216 -142q-69 -114 -100 -279q-21 -113 -21 -204q0 -132 24 -235zM629 -35
q-146 0 -248 50q-194 95 -269 317q-51 149 -51 321q0 45 4 88q31 368 215 578q195 224 546 224q270 0 386 -205q82 -147 82 -382q0 -63 -6 -131q-33 -389 -195 -618q-172 -242 -464 -242z" />
    <glyph glyph-name="Ugrave" unicode="&#xd9;" horiz-adv-x="1362" 
d="M636 -30q-432 0 -520 332q-29 108 -29 251q0 99 10 204q29 310 87 526q17 62 43 112t74 79.5t134 29.5q71 0 113 -31q70 -53 70 -155q0 -52 -28 -284q-30 -241 -35 -342q-4 -72 -4 -139q0 -132 20 -230q27 -131 97 -131q215 0 273 974l5 79q8 125 32 181q34 81 130 81
q79 0 118 -66q35 -62 35 -246q0 -399 -72 -695q-127 -530 -553 -530zM827 1558q-45 0 -124 52.5t-143 120.5q-72 78 -72 132t80 54q46 0 81 -11q71 -23 160 -182q51 -91 51 -130q0 -16 -9 -26t-24 -10z" />
    <glyph glyph-name="Uacute" unicode="&#xda;" horiz-adv-x="1362" 
d="M636 -30q-432 0 -520 332q-29 108 -29 251q0 99 10 204q29 310 87 526q17 62 43 112t74 79.5t134 29.5q71 0 113 -31q70 -53 70 -155q0 -52 -28 -284q-30 -241 -35 -342q-4 -72 -4 -139q0 -132 20 -230q27 -131 97 -131q215 0 273 974l5 79q8 125 32 181q34 81 130 81
q79 0 118 -66q35 -62 35 -246q0 -399 -72 -695q-127 -530 -553 -530zM770 1558q-15 0 -24 10t-9 26q0 39 51 130q89 159 160 182q35 11 81 11q80 0 80 -54t-72 -132q-64 -68 -143 -120.5t-124 -52.5z" />
    <glyph glyph-name="Ucircumflex" unicode="&#xdb;" horiz-adv-x="1362" 
d="M636 -30q-432 0 -520 332q-29 108 -29 251q0 99 10 204q29 310 87 526q17 62 43 112t74 79.5t134 29.5q71 0 113 -31q70 -53 70 -155q0 -52 -28 -284q-30 -241 -35 -342q-4 -72 -4 -139q0 -132 20 -230q27 -131 97 -131q215 0 273 974l5 79q8 125 32 181q34 81 130 81
q79 0 118 -66q35 -62 35 -246q0 -399 -72 -695q-127 -530 -553 -530zM1056 1558q-47 0 -120 44t-134 105q-72 -61 -152.5 -105t-127.5 -44q-19 0 -29 10.5t-10 26.5q0 40 78 129q135 155 190 178q34 15 69 15q75 0 123.5 -57t102.5 -135.5t54 -126.5q0 -18 -13 -29t-31 -11z
" />
    <glyph glyph-name="Udieresis" unicode="&#xdc;" horiz-adv-x="1362" 
d="M636 -30q-432 0 -520 332q-29 108 -29 251q0 99 10 204q29 310 87 526q17 62 43 112t74 79.5t134 29.5q71 0 113 -31q70 -53 70 -155q0 -52 -28 -284q-30 -241 -35 -342q-4 -72 -4 -139q0 -132 20 -230q27 -131 97 -131q215 0 273 974l5 79q8 125 32 181q34 81 130 81
q79 0 118 -66q35 -62 35 -246q0 -399 -72 -695q-127 -530 -553 -530zM589 1574q-38 0 -76 15q-81 34 -81 120q0 88 66 137q57 43 123 43q36 0 74 -15q85 -33 85 -124q0 -64 -35 -108q-54 -68 -156 -68zM1006 1574q-39 0 -77 15q-81 34 -81 120q0 88 66 137q57 43 123 43
q36 0 74 -15q85 -33 85 -124q0 -66 -35 -108q-55 -68 -155 -68z" />
    <glyph glyph-name="Yacute" unicode="&#xdd;" horiz-adv-x="1147" 
d="M536 -33q-96 0 -132 51.5t-42 126.5q-5 66 -5 138q0 233 55 410q-88 75 -179.5 235.5t-139.5 312.5q-27 86 -27 140q0 79 70 117q60 33 127 33q81 -1 126.5 -32t77.5 -92q63 -118 115.5 -263t68.5 -226q57 54 181 304q66 134 125 230q62 100 177 100q47 0 78 -31
q28 -28 28 -81q0 -63 -88 -239q-76 -150 -176 -288.5t-188 -182.5q18 -55 18 -143q0 -16 -2.5 -80.5t-20.5 -177.5t-37 -185q-21 -78 -67 -127.5t-143 -49.5zM711 1558q-15 0 -24 10t-9 26q0 39 51 130q89 159 160 182q35 11 81 11q80 0 80 -54t-72 -132
q-64 -68 -143 -120.5t-124 -52.5z" />
    <glyph glyph-name="Thorn" unicode="&#xde;" horiz-adv-x="1227" 
d="M537 317q-33 -181 -77 -259q-32 -57 -93 -78q-39 -14 -78 -14q-22 0 -62.5 8t-74.5 54q-54 72 -54 330q0 306 41 620q44 343 111 446q55 86 167 86q68 0 117 -45q37 -33 52 -103q5 -26 9 -56q56 4 120 4q264 0 389 -141q98 -110 98 -274q0 -127 -63 -260
q-151 -302 -602 -318zM561 467q231 20 305 212q38 100 38 182q0 63 -26 124.5t-98 104.5q-67 39 -176 42v-3q0 -270 -28 -539q-7 -65 -15 -123z" />
    <glyph glyph-name="germandbls" unicode="&#xdf;" horiz-adv-x="1370" 
d="M700 160q60 0 90 25t30 63q0 39 -37 74q-152 -54 -152 -109q0 -25 19.5 -39t49.5 -14zM185 -39q-128 0 -156.5 96.5t-28.5 357.5q0 97 24 403t174 514.5t419 208.5q160 0 248.5 -86.5t88.5 -236.5q0 -82 -40 -202.5t-40 -193.5q0 -78 46 -129t115 -95q39 -25 76 -55
q222 68 302 184q39 57 53 81q10 18 15 24.5t14 6.5q15 0 15 -19q0 -226 -323 -359q38 -56 38 -146q0 -109 -63 -193q-54 -72 -146.5 -113.5t-214.5 -41.5t-195.5 32t-104.5 81q-27 41 -27 86q0 143 225 228q-47 38 -93 91q-97 111 -97 280q0 164 117.5 299t117.5 203
q0 31 -18.5 46.5t-41.5 15.5q-205 -1 -236.5 -571t-89.5 -696q-45 -100 -173 -101z" />
    <glyph glyph-name="agrave" unicode="&#xe0;" horiz-adv-x="1292" 
d="M862 -48q-71 0 -118.5 39.5t-75.5 107t-40 152.5q-111 -258 -327 -258q-186 0 -262 147q-59 116 -59 287q0 46 4 93q22 251 137 421q129 189 343 189q62 0 108.5 -18t79 -45.5t50.5 -57.5q20 50 58.5 81t114.5 31q100 0 131 -52q50 -88 50 -335q0 -284 -75 -535
q92 79 197.5 246.5t152.5 280.5q21 52 35.5 76t25 30.5t20.5 6.5q20 0 20 -29q0 -34 -20 -99q-41 -133 -109 -288q-86 -195 -187 -319q-123 -152 -254 -152zM396 202q73 0 156 216t109 451q-44 57 -106 57q-101 0 -163 -122q-56 -108 -78 -262q-10 -73 -10 -134
q0 -206 92 -206zM624 1183q-45 0 -124 52.5t-143 120.5q-72 78 -72 132t80 54q46 0 81 -11q71 -23 160 -182q51 -91 51 -130q0 -16 -9 -26t-24 -10z" />
    <glyph glyph-name="aacute" unicode="&#xe1;" horiz-adv-x="1292" 
d="M862 -48q-71 0 -118.5 39.5t-75.5 107t-40 152.5q-111 -258 -327 -258q-186 0 -262 147q-59 116 -59 287q0 46 4 93q22 251 137 421q129 189 343 189q62 0 108.5 -18t79 -45.5t50.5 -57.5q20 50 58.5 81t114.5 31q100 0 131 -52q50 -88 50 -335q0 -284 -75 -535
q92 79 197.5 246.5t152.5 280.5q21 52 35.5 76t25 30.5t20.5 6.5q20 0 20 -29q0 -34 -20 -99q-41 -133 -109 -288q-86 -195 -187 -319q-123 -152 -254 -152zM396 202q73 0 156 216t109 451q-44 57 -106 57q-101 0 -163 -122q-56 -108 -78 -262q-10 -73 -10 -134
q0 -206 92 -206zM550 1183q-15 0 -24 10t-9 26q0 39 51 130q89 159 160 182q35 11 81 11q80 0 80 -54t-72 -132q-64 -68 -143 -120.5t-124 -52.5z" />
    <glyph glyph-name="acircumflex" unicode="&#xe2;" horiz-adv-x="1292" 
d="M862 -48q-71 0 -118.5 39.5t-75.5 107t-40 152.5q-111 -258 -327 -258q-186 0 -262 147q-59 116 -59 287q0 46 4 93q22 251 137 421q129 189 343 189q62 0 108.5 -18t79 -45.5t50.5 -57.5q20 50 58.5 81t114.5 31q100 0 131 -52q50 -88 50 -335q0 -284 -75 -535
q92 79 197.5 246.5t152.5 280.5q21 52 35.5 76t25 30.5t20.5 6.5q20 0 20 -29q0 -34 -20 -99q-41 -133 -109 -288q-86 -195 -187 -319q-123 -152 -254 -152zM396 202q73 0 156 216t109 451q-44 57 -106 57q-101 0 -163 -122q-56 -108 -78 -262q-10 -73 -10 -134
q0 -206 92 -206zM882 1183q-47 0 -120 44t-134 105q-72 -61 -152.5 -105t-127.5 -44q-19 0 -29 10.5t-10 26.5q0 40 78 129q135 155 190 178q34 15 69 15q75 0 123.5 -57t102.5 -135.5t54 -126.5q0 -18 -13 -29t-31 -11z" />
    <glyph glyph-name="atilde" unicode="&#xe3;" horiz-adv-x="1292" 
d="M862 -48q-71 0 -118.5 39.5t-75.5 107t-40 152.5q-111 -258 -327 -258q-186 0 -262 147q-59 116 -59 287q0 46 4 93q22 251 137 421q129 189 343 189q62 0 108.5 -18t79 -45.5t50.5 -57.5q20 50 58.5 81t114.5 31q100 0 131 -52q50 -88 50 -335q0 -284 -75 -535
q92 79 197.5 246.5t152.5 280.5q21 52 35.5 76t25 30.5t20.5 6.5q20 0 20 -29q0 -34 -20 -99q-41 -133 -109 -288q-86 -195 -187 -319q-123 -152 -254 -152zM396 202q73 0 156 216t109 451q-44 57 -106 57q-101 0 -163 -122q-56 -108 -78 -262q-10 -73 -10 -134
q0 -206 92 -206zM384 1232q-37 0 -37 59q0 129 104 185q41 23 84 23q39 0 78 -18q28 -12 63 -31q69 -38 98 -38q34 0 76 43q37 36 62 36q9 0 17 -4q27 -14 27 -49q0 -38 -16.5 -75.5t-32.5 -56.5q-65 -70 -134 -70q-5 0 -44.5 3t-117.5 48q-62 36 -87 36q-23 0 -61 -38
q-52 -53 -79 -53z" />
    <glyph glyph-name="adieresis" unicode="&#xe4;" horiz-adv-x="1292" 
d="M862 -48q-71 0 -118.5 39.5t-75.5 107t-40 152.5q-111 -258 -327 -258q-186 0 -262 147q-59 116 -59 287q0 46 4 93q22 251 137 421q129 189 343 189q62 0 108.5 -18t79 -45.5t50.5 -57.5q20 50 58.5 81t114.5 31q100 0 131 -52q50 -88 50 -335q0 -284 -75 -535
q92 79 197.5 246.5t152.5 280.5q21 52 35.5 76t25 30.5t20.5 6.5q20 0 20 -29q0 -34 -20 -99q-41 -133 -109 -288q-86 -195 -187 -319q-123 -152 -254 -152zM396 202q73 0 156 216t109 451q-44 57 -106 57q-101 0 -163 -122q-56 -108 -78 -262q-10 -73 -10 -134
q0 -206 92 -206zM396 1199q-38 0 -76 15q-81 34 -81 120q0 88 66 137q57 43 123 43q36 0 74 -15q85 -33 85 -124q0 -64 -35 -108q-54 -68 -156 -68zM813 1199q-39 0 -77 15q-81 34 -81 120q0 88 66 137q57 43 123 43q36 0 74 -15q85 -33 85 -124q0 -66 -35 -108
q-55 -68 -155 -68z" />
    <glyph glyph-name="aring" unicode="&#xe5;" horiz-adv-x="1292" 
d="M862 -48q-71 0 -118.5 39.5t-75.5 107t-40 152.5q-111 -258 -327 -258q-186 0 -262 147q-59 116 -59 287q0 46 4 93q22 251 137 421q129 189 343 189q62 0 108.5 -18t79 -45.5t50.5 -57.5q20 50 58.5 81t114.5 31q100 0 131 -52q50 -88 50 -335q0 -284 -75 -535
q92 79 197.5 246.5t152.5 280.5q21 52 35.5 76t25 30.5t20.5 6.5q20 0 20 -29q0 -34 -20 -99q-41 -133 -109 -288q-86 -195 -187 -319q-123 -152 -254 -152zM396 202q73 0 156 216t109 451q-44 57 -106 57q-101 0 -163 -122q-56 -108 -78 -262q-10 -73 -10 -134
q0 -206 92 -206zM661 1110q-52 0 -104 21q-110 45 -110 167q0 124 88 187q79 57 170 57q49 0 102 -21t81.5 -74t28.5 -117q0 -145 -137 -198q-58 -22 -119 -22zM674 1235q36 0 66 22q36 25 36 77q0 43 -27.5 63t-56.5 20q-35 0 -66 -25q-36 -29 -36 -77q0 -41 27 -60.5
t57 -19.5z" />
    <glyph glyph-name="ae" unicode="&#xe6;" horiz-adv-x="1669" 
d="M396 202q73 0 156 216t109 451q-44 77 -106 77q-101 0 -167 -140q-52 -110 -74 -264q-10 -73 -10 -134q0 -206 92 -206zM1066 691q109 0 187 60q62 48 83 123q6 21 6 47q0 51 -56 51q-62 0 -105.5 -39t-71.5 -103t-43 -139zM1068 -46q-338 0 -427 323
q-140 -284 -340 -284q-186 0 -262 147q-59 116 -59 287q0 46 4 93q22 251 137 421q129 189 343 189q197 0 295 -181q71 88 171 145q131 74 295 74q83 0 156.5 -32t116.5 -92q36 -48 36 -113q0 -135 -90 -221q-133 -128 -397 -154q-3 -33 -3 -69q0 -89 20 -165
q37 -143 151 -143q60 0 121 39t118 101.5t106.5 135.5t87 144t60.5 127q21 52 35.5 76t25 30.5t20.5 6.5q20 0 20 -29q0 -34 -21 -99q-169 -528 -433 -681q-131 -76 -287 -76z" />
    <glyph glyph-name="ccedilla" unicode="&#xe7;" horiz-adv-x="1044" 
d="M404 -38q-176 28 -279 152q-135 159 -135 374q0 251 102 425q81 138 212.5 217t295.5 79q186 0 271 -103q60 -74 60 -162q0 -57 -26 -105q-19 -36 -45 -36q-38 0 -52 49q-11 37 -26.5 71t-43.5 56t-77 22q-155 0 -215 -276q-26 -118 -26 -230q0 -306 210 -306
q145 0 309 264q96 155 144 273q21 52 36 76q22 37 45 37q20 0 20 -29q0 -34 -21 -99q-57 -178 -125 -314q-197 -390 -454 -437q83 -74 83 -166q0 -81 -65 -135q-58 -49 -171 -50q-37 0 -78 6q-90 14 -90 57q0 33 30.5 48t68.5 23.5t67 22.5q34 17 34 58q0 74 -59 138z" />
    <glyph glyph-name="egrave" unicode="&#xe8;" horiz-adv-x="1034" 
d="M527 624q75 0 127.5 82t52.5 175q0 91 -56 91q-62 0 -105.5 -39t-71.5 -103t-43 -139q30 -67 96 -67zM433 -46q-241 0 -347 139.5t-106 354.5q0 320 164.5 520t425.5 200q170 0 249.5 -83.5t79.5 -203.5q0 -175 -116 -282.5t-237 -107.5q-86 0 -134 65q-3 -33 -3 -69
q0 -89 20 -165q37 -143 151 -143q60 0 121 39t118 101.5t106.5 135.5t87 144t60.5 127q21 52 35.5 76t25 30.5t20.5 6.5q20 0 20 -29q0 -34 -21 -99q-169 -528 -433 -681q-131 -76 -287 -76zM668 1183q-45 0 -124 52.5t-143 120.5q-72 78 -72 132t80 54q46 0 81 -11
q71 -23 160 -182q51 -91 51 -130q0 -16 -9 -26t-24 -10z" />
    <glyph glyph-name="eacute" unicode="&#xe9;" horiz-adv-x="1034" 
d="M527 624q75 0 127.5 82t52.5 175q0 91 -56 91q-62 0 -105.5 -39t-71.5 -103t-43 -139q30 -67 96 -67zM433 -46q-241 0 -347 139.5t-106 354.5q0 320 164.5 520t425.5 200q170 0 249.5 -83.5t79.5 -203.5q0 -175 -116 -282.5t-237 -107.5q-86 0 -134 65q-3 -33 -3 -69
q0 -89 20 -165q37 -143 151 -143q60 0 121 39t118 101.5t106.5 135.5t87 144t60.5 127q21 52 35.5 76t25 30.5t20.5 6.5q20 0 20 -29q0 -34 -21 -99q-169 -528 -433 -681q-131 -76 -287 -76zM486 1183q-15 0 -24 10t-9 26q0 39 51 130q89 159 160 182q35 11 81 11
q80 0 80 -54t-72 -132q-64 -68 -143 -120.5t-124 -52.5z" />
    <glyph glyph-name="ecircumflex" unicode="&#xea;" horiz-adv-x="1034" 
d="M527 624q75 0 127.5 82t52.5 175q0 91 -56 91q-62 0 -105.5 -39t-71.5 -103t-43 -139q30 -67 96 -67zM433 -46q-241 0 -347 139.5t-106 354.5q0 320 164.5 520t425.5 200q170 0 249.5 -83.5t79.5 -203.5q0 -175 -116 -282.5t-237 -107.5q-86 0 -134 65q-3 -33 -3 -69
q0 -89 20 -165q37 -143 151 -143q60 0 121 39t118 101.5t106.5 135.5t87 144t60.5 127q21 52 35.5 76t25 30.5t20.5 6.5q20 0 20 -29q0 -34 -21 -99q-169 -528 -433 -681q-131 -76 -287 -76zM842 1183q-47 0 -120 44t-134 105q-72 -61 -152.5 -105t-127.5 -44
q-19 0 -29.5 10.5t-10.5 26.5q0 40 78 129q135 155 190 178q35 15 70 15q75 0 123.5 -57t102.5 -135.5t54 -126.5q0 -18 -13 -29t-31 -11z" />
    <glyph glyph-name="edieresis" unicode="&#xeb;" horiz-adv-x="1034" 
d="M527 624q75 0 127.5 82t52.5 175q0 91 -56 91q-62 0 -105.5 -39t-71.5 -103t-43 -139q30 -67 96 -67zM433 -46q-241 0 -347 139.5t-106 354.5q0 320 164.5 520t425.5 200q170 0 249.5 -83.5t79.5 -203.5q0 -175 -116 -282.5t-237 -107.5q-86 0 -134 65q-3 -33 -3 -69
q0 -89 20 -165q37 -143 151 -143q60 0 121 39t118 101.5t106.5 135.5t87 144t60.5 127q21 52 35.5 76t25 30.5t20.5 6.5q20 0 20 -29q0 -34 -21 -99q-169 -528 -433 -681q-131 -76 -287 -76zM352 1199q-38 0 -76 15q-81 34 -81 120q0 88 66 137q57 43 123 43q36 0 74 -15
q85 -33 85 -124q0 -64 -35 -108q-54 -68 -156 -68zM769 1199q-39 0 -77 15q-81 34 -81 120q0 88 66 137q57 43 123 43q36 0 74 -15q85 -33 85 -124q0 -66 -35 -108q-55 -68 -155 -68z" />
    <glyph glyph-name="igrave" unicode="&#xec;" horiz-adv-x="668" 
d="M238 -48q-137 0 -194 156q-44 118 -44 310q0 104 15 223q40 320 117 427q39 53 143 53q98 0 129 -51q47 -79 47 -293q0 -281 -94 -578q92 79 197.5 246.5t152.5 280.5q21 52 35.5 76t25 30.5t20.5 6.5q20 0 20 -29q0 -34 -21 -99q-129 -402 -295 -607
q-123 -152 -254 -152zM372 1183q-45 0 -124 52.5t-143 120.5q-72 78 -72 132t80 54q46 0 81 -11q71 -23 160 -182q51 -91 51 -130q0 -16 -9 -26t-24 -10z" />
    <glyph glyph-name="iacute" unicode="&#xed;" horiz-adv-x="668" 
d="M238 -48q-137 0 -194 156q-44 118 -44 310q0 104 15 223q40 320 117 427q39 53 143 53q98 0 129 -51q47 -79 47 -293q0 -281 -94 -578q92 79 197.5 246.5t152.5 280.5q21 52 35.5 76t25 30.5t20.5 6.5q20 0 20 -29q0 -34 -21 -99q-129 -402 -295 -607
q-123 -152 -254 -152zM232 1183q-15 0 -24 10t-9 26q0 39 51 130q89 159 160 182q35 11 81 11q80 0 80 -54t-72 -132q-64 -68 -143 -120.5t-124 -52.5z" />
    <glyph glyph-name="icircumflex" unicode="&#xee;" horiz-adv-x="668" 
d="M238 -48q-137 0 -194 156q-44 118 -44 310q0 104 15 223q40 320 117 427q39 53 143 53q98 0 129 -51q47 -79 47 -293q0 -281 -94 -578q92 79 197.5 246.5t152.5 280.5q21 52 35.5 76t25 30.5t20.5 6.5q20 0 20 -29q0 -34 -21 -99q-129 -402 -295 -607
q-123 -152 -254 -152zM542 1183q-47 0 -120 44t-134 105q-72 -61 -152.5 -105t-127.5 -44q-19 0 -29.5 10.5t-10.5 26.5q0 40 78 129q135 155 190 178q35 15 70 15q75 0 123.5 -57t102.5 -135.5t54 -126.5q0 -18 -13 -29t-31 -11z" />
    <glyph glyph-name="idieresis" unicode="&#xef;" horiz-adv-x="668" 
d="M238 -48q-137 0 -194 156q-44 118 -44 310q0 104 15 223q40 320 117 427q39 53 143 53q98 0 129 -51q47 -79 47 -293q0 -281 -94 -578q92 79 197.5 246.5t152.5 280.5q21 52 35.5 76t25 30.5t20.5 6.5q20 0 20 -29q0 -34 -21 -99q-129 -402 -295 -607
q-123 -152 -254 -152zM107 1199q-38 0 -76 15q-81 34 -81 120q0 88 66 137q57 43 123 43q36 0 74 -15q85 -33 85 -124q0 -64 -35 -108q-54 -68 -156 -68zM524 1199q-39 0 -77 15q-81 34 -81 120q0 88 66 137q57 43 123 43q36 0 74 -15q85 -33 85 -124q0 -66 -35 -108
q-55 -68 -155 -68z" />
    <glyph glyph-name="eth" unicode="&#xf0;" horiz-adv-x="1172" 
d="M392 247q97 0 153 135q44 107 50 209q2 46 2 95l-1 60q-50 0 -123 -35t-131 -102q-69 -80 -69 -189q0 -97 46 -145q28 -28 73 -28zM474 -47q-256 0 -375 150q-91 115 -91 283q0 181 106 313q90 112 241 167q79 29 168 29q33 0 61 -5q-20 134 -73 232q-168 -96 -215 -96
q-28 0 -45 25q-8 13 -8 26q0 51 177 177q-42 47 -64 87q-13 24 -13 59q0 66 38.5 105.5t108.5 39.5q20 0 42 -3q121 -19 214 -82q48 26 94 49q71 36 104 36q28 0 44 -26q8 -12 8 -25q0 -44 -133 -144q143 -192 173 -347q28 -142 28 -237q0 -195 -68.5 -378.5t-189.5 -298.5
q-143 -136 -332 -136z" />
    <glyph glyph-name="ntilde" unicode="&#xf1;" horiz-adv-x="1289" 
d="M859 -48q-229 0 -229 381q0 160 39.5 346.5t78.5 270.5q-51 0 -99 -58q-88 -105 -166 -335q-65 -189 -86 -317q-25 -153 -65 -202q-54 -67 -158 -67q-74 0 -116 45q-58 60 -58 289q0 207 30 430q33 250 101 331q48 57 152 57q151 0 171 -143q6 -42 6 -85q0 -24 -2 -49
q74 147 178 233.5t202 86.5q225 0 225 -371q0 -152 -37 -379q-20 -123 -48 -217q92 79 197.5 246.5t152.5 280.5q21 52 35.5 76t25 30.5t20.5 6.5q20 0 20 -29q0 -34 -21 -99q-129 -402 -295 -607q-123 -152 -254 -152zM383 1232q-37 0 -37 59q0 129 103 185q42 23 85 23
q39 0 78 -18q28 -12 63 -31q69 -38 98 -38q33 0 76 43q36 36 62 36q8 0 17 -4q27 -14 27 -49q0 -38 -16.5 -75.5t-33.5 -56.5q-64 -70 -134 -70q-4 0 -43.5 3t-118.5 48q-62 36 -86 36t-61 -38q-52 -53 -79 -53z" />
    <glyph glyph-name="ograve" unicode="&#xf2;" horiz-adv-x="1167" 
d="M510 176q61 0 107.5 36.5t79 97t51.5 135.5q-115 52 -193 150.5t-102 214.5q-75 -190 -75 -381q0 -43 7.5 -101t38 -105t86.5 -47zM771 587q4 48 4 93q0 206 -70 297q-27 34 -49 34q-45 0 -45 -112q0 -97 45.5 -180.5t114.5 -131.5zM435 -33q-240 0 -352 157
q-93 129 -93 353q0 313 145 516q127 180 330 180q60 0 80 -26q56 26 109 26q170 0 261 -179q69 -137 69 -319q0 -59 -10 -147q159 12 233 198q21 52 35 76q22 37 47 37q19 0 19 -27q0 -39 -21 -101q-50 -152 -139.5 -224t-199.5 -78q-34 -121 -102 -221q-151 -221 -411 -221
zM557 1183q-45 0 -124 52.5t-143 120.5q-72 78 -72 132t80 54q46 0 81 -11q71 -23 160 -182q51 -91 51 -130q0 -16 -9 -26t-24 -10z" />
    <glyph glyph-name="oacute" unicode="&#xf3;" horiz-adv-x="1167" 
d="M510 176q61 0 107.5 36.5t79 97t51.5 135.5q-115 52 -193 150.5t-102 214.5q-75 -190 -75 -381q0 -43 7.5 -101t38 -105t86.5 -47zM771 587q4 48 4 93q0 206 -70 297q-27 34 -49 34q-45 0 -45 -112q0 -97 45.5 -180.5t114.5 -131.5zM435 -33q-240 0 -352 157
q-93 129 -93 353q0 313 145 516q127 180 330 180q60 0 80 -26q56 26 109 26q170 0 261 -179q69 -137 69 -319q0 -59 -10 -147q159 12 233 198q21 52 35 76q22 37 47 37q19 0 19 -27q0 -39 -21 -101q-50 -152 -139.5 -224t-199.5 -78q-34 -121 -102 -221q-151 -221 -411 -221
zM558 1183q-15 0 -24 10t-9 26q0 39 51 130q89 159 160 182q35 11 81 11q80 0 80 -54t-72 -132q-64 -68 -143 -120.5t-124 -52.5z" />
    <glyph glyph-name="ocircumflex" unicode="&#xf4;" horiz-adv-x="1167" 
d="M510 176q61 0 107.5 36.5t79 97t51.5 135.5q-115 52 -193 150.5t-102 214.5q-75 -190 -75 -381q0 -43 7.5 -101t38 -105t86.5 -47zM771 587q4 48 4 93q0 206 -70 297q-27 34 -49 34q-45 0 -45 -112q0 -97 45.5 -180.5t114.5 -131.5zM435 -33q-240 0 -352 157
q-93 129 -93 353q0 313 145 516q127 180 330 180q60 0 80 -26q56 26 109 26q170 0 261 -179q69 -137 69 -319q0 -59 -10 -147q159 12 233 198q21 52 35 76q22 37 47 37q19 0 19 -27q0 -39 -21 -101q-50 -152 -139.5 -224t-199.5 -78q-34 -121 -102 -221q-151 -221 -411 -221
zM828 1183q-47 0 -120 44t-134 105q-72 -61 -152.5 -105t-127.5 -44q-19 0 -29 10.5t-10 26.5q0 40 78 129q135 155 190 178q34 15 69 15q75 0 123.5 -57t102.5 -135.5t54 -126.5q0 -18 -13 -29t-31 -11z" />
    <glyph glyph-name="otilde" unicode="&#xf5;" horiz-adv-x="1167" 
d="M510 176q61 0 107.5 36.5t79 97t51.5 135.5q-115 52 -193 150.5t-102 214.5q-75 -190 -75 -381q0 -43 7.5 -101t38 -105t86.5 -47zM771 587q4 48 4 93q0 206 -70 297q-27 34 -49 34q-45 0 -45 -112q0 -97 45.5 -180.5t114.5 -131.5zM435 -33q-240 0 -352 157
q-93 129 -93 353q0 313 145 516q127 180 330 180q60 0 80 -26q56 26 109 26q170 0 261 -179q69 -137 69 -319q0 -59 -10 -147q159 12 233 198q21 52 35 76q22 37 47 37q19 0 19 -27q0 -39 -21 -101q-50 -152 -139.5 -224t-199.5 -78q-34 -121 -102 -221q-151 -221 -411 -221
zM334 1232q-37 0 -37 59q0 129 104 185q41 23 84 23q39 0 78 -18q28 -12 63 -31q69 -38 98 -38q34 0 76 43q37 36 62 36q8 0 17 -4q27 -14 27 -49q0 -38 -16.5 -75.5t-33.5 -56.5q-64 -70 -133 -70q-5 0 -44.5 3t-117.5 48q-62 36 -87 36q-23 0 -61 -38q-52 -53 -79 -53z
" />
    <glyph glyph-name="odieresis" unicode="&#xf6;" horiz-adv-x="1167" 
d="M510 176q61 0 107.5 36.5t79 97t51.5 135.5q-115 52 -193 150.5t-102 214.5q-75 -190 -75 -381q0 -43 7.5 -101t38 -105t86.5 -47zM771 587q4 48 4 93q0 206 -70 297q-27 34 -49 34q-45 0 -45 -112q0 -97 45.5 -180.5t114.5 -131.5zM435 -33q-240 0 -352 157
q-93 129 -93 353q0 313 145 516q127 180 330 180q60 0 80 -26q56 26 109 26q170 0 261 -179q69 -137 69 -319q0 -59 -10 -147q159 12 233 198q21 52 35 76q22 37 47 37q19 0 19 -27q0 -39 -21 -101q-50 -152 -139.5 -224t-199.5 -78q-34 -121 -102 -221q-151 -221 -411 -221
zM360 1199q-38 0 -76 15q-81 34 -81 120q0 88 66 137q57 43 123 43q36 0 74 -15q85 -33 85 -124q0 -64 -35 -108q-54 -68 -156 -68zM777 1199q-39 0 -77 15q-81 34 -81 120q0 88 66 137q57 43 123 43q36 0 74 -15q85 -33 85 -124q0 -66 -35 -108q-55 -68 -155 -68z" />
    <glyph glyph-name="divide" unicode="&#xf7;" horiz-adv-x="1002" 
d="M322 529q-207 0 -280 32q-39 17 -39 62q0 57 48 77q78 32 202 39q186 9 389 9q32 0 86 -1t115 -9q52 -7 93 -23t41 -60q0 -106 -254 -117q-191 -9 -401 -9zM481 62q-39 0 -80 17t-67 53q-22 29 -22 74q0 78 37 128q55 75 161 75q81 0 123 -42q35 -36 35 -92
q0 -98 -65 -160q-55 -53 -122 -53zM481 869q-39 0 -80 17t-67 53q-22 29 -22 74q0 78 37 128q55 75 161 75q81 0 123 -42q35 -36 35 -92q0 -98 -65 -160q-55 -53 -122 -53z" />
    <glyph glyph-name="oslash" unicode="&#xf8;" horiz-adv-x="1167" 
d="M771 587q4 48 4 93q0 49 -4 92q-27 -69 -55 -137q25 -27 55 -48zM278 -236l-9 1q-30 10 -30 57q0 44 44 164q-127 36 -200 138q-93 129 -93 353q0 313 145 516q127 180 330 180q60 0 80 -26q56 26 109 26q72 0 129 -32l25 50q46 93 83 93q32 0 32 -46q0 -59 -45 -184
q20 -27 37 -60q69 -137 69 -319q0 -59 -10 -147q159 12 233 198q21 52 35 76q22 37 47 37q19 0 19 -27q0 -39 -21 -101q-50 -152 -139.5 -224t-199.5 -78q-34 -121 -102 -221q-151 -221 -411 -221h-13l-34 -69q-68 -134 -110 -134zM397 278q52 124 144 337q-66 90 -88 195
q-75 -190 -75 -381q0 -95 19 -151zM520 176q55 3 98 37q89 70 130 232q-48 22 -89 51q-69 -164 -139 -320zM623 802l81 176q-26 33 -48 33q-45 0 -45 -112q0 -50 12 -97z" />
    <glyph glyph-name="ugrave" unicode="&#xf9;" horiz-adv-x="1229" 
d="M798 -48q-127 0 -186 137q-50 116 -52 313q-145 -404 -362 -404q-133 0 -176 189q-21 90 -21 209q0 230 23 386q17 116 59.5 205t153.5 89q80 0 113 -39t33 -152q0 -376 -83 -660q56 0 154 224q76 174 161 432q20 62 45 117q54 123 172 124q101 0 133 -52q47 -79 47 -298
q0 -274 -95 -573q92 79 198 246.5t152 280.5q22 52 36.5 76t25 30.5t20.5 6.5q20 0 20 -29q0 -35 -20 -99q-44 -140 -109 -288q-86 -195 -187 -319q-123 -152 -255 -152zM551 1183q-45 0 -124 52.5t-143 120.5q-73 78 -73 132t81 54q46 0 81 -11q70 -23 160 -182
q51 -91 51 -130q0 -16 -9 -26t-24 -10z" />
    <glyph glyph-name="uacute" unicode="&#xfa;" horiz-adv-x="1229" 
d="M798 -48q-127 0 -186 137q-50 116 -52 313q-145 -404 -362 -404q-133 0 -176 189q-21 90 -21 209q0 230 23 386q17 116 59.5 205t153.5 89q80 0 113 -39t33 -152q0 -376 -83 -660q56 0 154 224q76 174 161 432q20 62 45 117q54 123 172 124q101 0 133 -52q47 -79 47 -298
q0 -274 -95 -573q92 79 198 246.5t152 280.5q22 52 36.5 76t25 30.5t20.5 6.5q20 0 20 -29q0 -35 -20 -99q-44 -140 -109 -288q-86 -195 -187 -319q-123 -152 -255 -152zM487 1183q-15 0 -24 10t-9 26q0 39 51 130q90 159 160 182q35 11 81 11q81 0 81 -54t-73 -132
q-64 -68 -143 -120.5t-124 -52.5z" />
    <glyph glyph-name="ucircumflex" unicode="&#xfb;" horiz-adv-x="1229" 
d="M798 -48q-127 0 -186 137q-50 116 -52 313q-145 -404 -362 -404q-133 0 -176 189q-21 90 -21 209q0 230 23 386q17 116 59.5 205t153.5 89q80 0 113 -39t33 -152q0 -376 -83 -660q56 0 154 224q76 174 161 432q20 62 45 117q54 123 172 124q101 0 133 -52q47 -79 47 -298
q0 -274 -95 -573q92 79 198 246.5t152 280.5q22 52 36.5 76t25 30.5t20.5 6.5q20 0 20 -29q0 -35 -20 -99q-44 -140 -109 -288q-86 -195 -187 -319q-123 -152 -255 -152zM800 1183q-47 0 -120 44t-134 105q-72 -61 -152.5 -105t-127.5 -44q-19 0 -29 10.5t-10 26.5
q0 40 78 129q135 155 190 178q34 15 69 15q75 0 123.5 -57t102.5 -135.5t54 -126.5q0 -18 -13 -29t-31 -11z" />
    <glyph glyph-name="udieresis" unicode="&#xfc;" horiz-adv-x="1229" 
d="M798 -48q-127 0 -186 137q-50 116 -52 313q-145 -404 -362 -404q-133 0 -176 189q-21 90 -21 209q0 230 23 386q17 116 59.5 205t153.5 89q80 0 113 -39t33 -152q0 -376 -83 -660q56 0 154 224q76 174 161 432q20 62 45 117q54 123 172 124q101 0 133 -52q47 -79 47 -298
q0 -274 -95 -573q92 79 198 246.5t152 280.5q22 52 36.5 76t25 30.5t20.5 6.5q20 0 20 -29q0 -35 -20 -99q-44 -140 -109 -288q-86 -195 -187 -319q-123 -152 -255 -152zM333 1199q-38 0 -76 15q-82 34 -82 120q0 88 67 137q57 43 123 43q36 0 74 -15q85 -33 85 -124
q0 -64 -35 -108q-54 -68 -156 -68zM750 1199q-39 0 -77 15q-82 34 -82 120q0 88 67 137q57 43 123 43q36 0 74 -15q85 -33 85 -124q0 -66 -35 -108q-55 -68 -155 -68z" />
    <glyph glyph-name="yacute" unicode="&#xfd;" horiz-adv-x="1171" 
d="M264 -460q-181 0 -181 150q0 151 130 268q117 104 284 198q14 90 40 282q-112 -248 -294 -248q-110 0 -176.5 94t-66.5 279q0 66 8 144q27 302 102 402q33 43 121 43q82 0 108 -41q41 -65 41 -266q0 -219 -59 -452q62 26 156 210q48 93 89 235q32 110 41 165
q15 90 48 137q37 53 175 54q48 0 80.5 -17t48 -58t23.5 -101q19 -137 19 -284q0 -134 -13 -275q167 130 223 267q22 52 36 76q22 37 46 37q18 0 18 -24q0 -70 -44 -165q-84 -180 -299 -340q-54 -323 -218 -533q-185 -237 -486 -237zM262 -305q126 0 201 289
q-223 -148 -223 -264q0 -25 22 -25zM471 1183q-15 0 -24 10t-9 26q0 39 51 130q90 159 160 182q35 11 81 11q81 0 81 -54t-73 -132q-64 -68 -143 -120.5t-124 -52.5z" />
    <glyph glyph-name="thorn" unicode="&#xfe;" horiz-adv-x="1293" 
d="M521 147q57 0 102 50q86 95 130 297q31 141 31 253q0 163 -63 163q-50 0 -92.5 -57t-76 -145t-58.5 -186.5t-40.5 -185t-21.5 -138.5q38 -51 89 -51zM144 -460q-100 0 -136 68q-25 46 -35 145q-6 68 -6 191q0 262 52 789q54 551 124 708q44 100 176 100q124 0 153 -99
q26 -90 26 -285q0 -129 -9 -274q121 247 327 247q165 0 243 -134q57 -98 57 -246q0 -33 -3 -68q-22 -249 -149 -449q222 136 368 493q21 52 36 76q22 37 45 37q20 0 20 -29q0 -35 -21 -99q-97 -306 -298 -505q-224 -222 -521 -222q-117 0 -183 57q-23 -146 -53 -267
q-20 -84 -62 -146q-58 -88 -151 -88z" />
    <glyph glyph-name="ydieresis" unicode="&#xff;" horiz-adv-x="1171" 
d="M264 -460q-181 0 -181 150q0 151 130 268q117 104 284 198q14 90 40 282q-112 -248 -294 -248q-110 0 -176.5 94t-66.5 279q0 66 8 144q27 302 102 402q33 43 121 43q82 0 108 -41q41 -65 41 -266q0 -219 -59 -452q62 26 156 210q48 93 89 235q32 110 41 165
q15 90 48 137q37 53 175 54q48 0 80.5 -17t48 -58t23.5 -101q19 -137 19 -284q0 -134 -13 -275q167 130 223 267q22 52 36 76q22 37 46 37q18 0 18 -24q0 -70 -44 -165q-84 -180 -299 -340q-54 -323 -218 -533q-185 -237 -486 -237zM262 -305q126 0 201 289
q-223 -148 -223 -264q0 -25 22 -25zM431 1199q-38 0 -76 15q-81 34 -81 120q0 88 66 137q57 43 123 43q36 0 74 -15q85 -33 85 -124q0 -64 -35 -108q-54 -68 -156 -68zM848 1199q-39 0 -77 15q-81 34 -81 120q0 88 66 137q57 43 123 43q36 0 74 -15q85 -33 85 -124
q0 -66 -35 -108q-55 -68 -155 -68z" />
    <glyph glyph-name="dotlessi" unicode="&#x131;" horiz-adv-x="668" 
d="M238 -48q-137 0 -194 156q-44 118 -44 310q0 104 15 223q40 320 117 427q39 53 143 53q98 0 129 -51q47 -79 47 -293q0 -281 -94 -578q92 79 197.5 246.5t152.5 280.5q21 52 35.5 76t25 30.5t20.5 6.5q20 0 20 -29q0 -34 -21 -99q-129 -402 -295 -607
q-123 -152 -254 -152z" />
    <glyph glyph-name="circumflex" unicode="&#x2c6;" horiz-adv-x="717" 
d="M623 1183q-47 0 -120 44t-134 105q-72 -61 -152.5 -105t-127.5 -44q-19 0 -29 10.5t-10 26.5q0 40 77 129q136 155 190 178q35 15 70 15q75 0 123.5 -57t102.5 -135.5t54 -126.5q0 -18 -13 -29t-31 -11z" />
    <glyph glyph-name="caron" unicode="&#x2c7;" horiz-adv-x="717" 
d="M94 1542q47 0 120 -44t134 -105q72 61 152.5 105t127.5 44q19 0 29 -11t10 -27q0 -40 -78 -129q-135 -155 -190 -178q-34 -14 -69 -14q-75 0 -123.5 57t-102.5 135.5t-54 126.5q0 18 13 29t31 11z" />
    <glyph glyph-name="ring" unicode="&#x2da;" horiz-adv-x="570" 
d="M264 1110q-52 0 -104 21q-110 45 -110 167q0 124 88 187q79 57 170 57q49 0 102 -21t81.5 -74t28.5 -117q0 -145 -137 -198q-58 -22 -119 -22zM277 1235q36 0 66 22q36 25 36 77q0 43 -27.5 63t-56.5 20q-35 0 -66 -25q-36 -29 -36 -77q0 -41 27 -60.5t57 -19.5z" />
    <glyph glyph-name="ogonek" unicode="&#x2db;" horiz-adv-x="487" 
d="M255 -391q-112 1 -158.5 46t-46.5 104q0 101 85 175q74 64 142.5 92.5t93.5 28.5q30 0 30 -25q0 -19 -17 -33q-54 -48 -83 -83q-40 -47 -40 -109q0 -26 25 -39.5t61.5 -22t63 -23t26.5 -43.5q0 -25 -35 -42q-54 -26 -147 -26z" />
    <glyph glyph-name="tilde" unicode="&#x2dc;" horiz-adv-x="709" 
d="M87 1232q-37 0 -37 59q0 129 103 185q42 23 85 23q39 0 78 -18q28 -12 62 -31q70 -38 99 -38q33 0 76 43q36 36 62 36q8 0 17 -4q27 -14 27 -49q0 -38 -16.5 -75.5t-33.5 -56.5q-65 -70 -134 -70q-4 0 -43.5 3t-118.5 48q-62 36 -86 36t-61 -38q-52 -53 -79 -53z" />
    <glyph glyph-name="endash" unicode="&#x2013;" horiz-adv-x="1662" 
d="M890 461h-471q-219 0 -288 35q-31 16 -31 61q0 55 40 76q36 18 85 26q144 24 302 24h756q242 0 315 -37q30 -15 30 -57q0 -59 -37.5 -78.5t-124.5 -33.5t-279 -15z" />
    <glyph glyph-name="emdash" unicode="&#x2014;" horiz-adv-x="2414" 
d="M1439 461h-1020q-219 0 -288 35q-31 16 -31 61q0 55 40 76q36 18 85 26q144 24 302 24h1508q242 0 315 -37q30 -15 30 -57q0 -59 -37.5 -78.5t-124.5 -33.5t-279 -15q-153 -1 -500 -1z" />
    <glyph glyph-name="quoteleft" unicode="&#x2018;" horiz-adv-x="504" 
d="M412 1543q14 0 22 -9.5t8 -20.5q0 -16 -15 -38.5t-30 -43.5q-85 -118 -93 -174q59 -5 104.5 -43t45.5 -107q0 -72 -37 -121q-57 -75 -162 -75q-81 0 -122 45q-33 36 -33 94q0 223 231 444q51 49 81 49z" />
    <glyph glyph-name="quoteright" unicode="&#x2019;" horiz-adv-x="504" 
d="M142 911q-14 0 -22 9.5t-8 20.5q0 16 15 38.5t30 43.5q85 118 93 174q-59 5 -104.5 43t-45.5 107q0 72 37 121q57 75 162 75q81 0 122 -45q33 -36 33 -94q0 -223 -231 -444q-51 -49 -81 -49z" />
    <glyph glyph-name="quotesinglbase" unicode="&#x201a;" horiz-adv-x="392" 
d="M42 -339q-14 0 -22 9.5t-8 20.5q0 16 15 38.5t30 43.5q85 118 93 174q-59 5 -104.5 43t-45.5 107q0 72 37 121q57 75 162 75q81 0 122 -45q33 -36 33 -94q0 -223 -231 -444q-51 -49 -81 -49z" />
    <glyph glyph-name="quotedblleft" unicode="&#x201c;" horiz-adv-x="1000" 
d="M412 1543q14 0 22 -9.5t8 -20.5q0 -16 -15 -38.5t-30 -43.5q-85 -118 -93 -174q59 -5 104.5 -43t45.5 -107q0 -72 -37 -121q-57 -75 -162 -75q-81 0 -122 45q-33 36 -33 94q0 223 231 444q51 49 81 49zM908 1543q14 0 22 -9.5t8 -20.5q0 -16 -15 -38.5t-30 -43.5
q-85 -118 -93 -174q59 -5 104.5 -43t45.5 -107q0 -72 -37 -121q-57 -75 -162 -75q-81 0 -122 45q-33 36 -33 94q0 223 231 444q51 49 81 49z" />
    <glyph glyph-name="quotedblright" unicode="&#x201d;" horiz-adv-x="1000" 
d="M142 911q-14 0 -22 9.5t-8 20.5q0 16 15 38.5t30 43.5q85 118 93 174q-59 5 -104.5 43t-45.5 107q0 72 37 121q57 75 162 75q81 0 122 -45q33 -36 33 -94q0 -223 -231 -444q-51 -49 -81 -49zM638 911q-14 0 -22 9.5t-8 20.5q0 16 15 38.5t30 43.5q85 118 93 174
q-59 5 -104.5 43t-45.5 107q0 72 37 121q57 75 162 75q81 0 122 -45q33 -36 33 -94q0 -223 -231 -444q-51 -49 -81 -49z" />
    <glyph glyph-name="quotedblbase" unicode="&#x201e;" horiz-adv-x="1000" 
d="M142 -316q-14 0 -22 9.5t-8 20.5q0 16 15 38.5t30 43.5q85 118 93 174q-59 5 -104.5 43t-45.5 107q0 72 37 121q57 75 162 75q81 0 122 -45q33 -36 33 -94q0 -223 -231 -444q-51 -49 -81 -49zM638 -316q-14 0 -22 9.5t-8 20.5q0 16 15 38.5t30 43.5q85 118 93 174
q-59 5 -104.5 43t-45.5 107q0 72 37 121q57 75 162 75q81 0 122 -45q33 -36 33 -94q0 -223 -231 -444q-51 -49 -81 -49z" />
    <glyph glyph-name="dagger" unicode="&#x2020;" horiz-adv-x="1026" 
d="M386 -346q-86 0 -105 42q-16 35 -16 87l-1 136q0 586 83 1176q-67 2 -137.5 6.5t-118.5 24.5q-41 17 -41 74q0 80 55 100q50 19 126 22t151 5q12 67 24.5 134.5t38.5 109t112 41.5t104 -43q14 -35 14 -83l-4 -160q72 -1 144 -4q76 -3 118.5 -20.5t42.5 -73.5
q0 -81 -53.5 -101.5t-123.5 -25t-137 -6.5q-31 -642 -130 -1289q-10 -67 -35.5 -109.5t-110.5 -42.5z" />
    <glyph glyph-name="bullet" unicode="&#x2022;" horiz-adv-x="814" 
d="M353 249q-101 0 -172 36q-131 68 -131 213q0 140 68 235q59 82 144 120.5t179 38.5q99 0 174 -41.5t114 -107.5q35 -57 35 -122q0 -150 -103 -257q-110 -115 -308 -115z" />
    <glyph glyph-name="ellipsis" unicode="&#x2026;" horiz-adv-x="2048" 
d="M169 -54q-39 0 -80 17t-67 53q-22 30 -22 74q0 78 37 128q55 75 161 75q81 0 123 -42q35 -36 35 -92q0 -97 -65 -160q-55 -53 -122 -53zM852 -54q-39 0 -80 17t-67 53q-22 30 -22 74q0 78 37 128q55 75 161 75q81 0 123 -42q35 -36 35 -92q0 -97 -65 -160
q-55 -53 -122 -53zM1535 -54q-39 0 -80 17t-67 53q-22 30 -22 74q0 78 37 128q55 75 161 75q81 0 123 -42q35 -36 35 -92q0 -97 -65 -160q-55 -53 -122 -53z" />
    <glyph glyph-name="guilsinglleft" unicode="&#x2039;" horiz-adv-x="689" 
d="M461 202q-82 0 -143 39t-135 100q-133 110 -133 203q0 92 156 226q72 61 153 110q100 60 172 60q77 0 100 -47q8 -18 8 -38q0 -71 -105 -159q-83 -70 -185 -134q50 -30 117 -81.5t93.5 -96.5t26.5 -72q0 -32 -24 -61q-41 -49 -101 -49z" />
    <glyph glyph-name="guilsinglright" unicode="&#x203a;" horiz-adv-x="689" 
d="M228 940q82 0 143 -39t135 -100q133 -111 133 -203t-156 -226q-72 -61 -153 -110q-100 -60 -172 -60q-77 0 -100 47q-8 18 -8 37q0 72 105 160q83 69 185 134q-50 30 -117 81.5t-93.5 96t-26.5 72.5q0 31 24 60q41 50 101 50z" />
    <glyph glyph-name="fraction" unicode="&#x2044;" horiz-adv-x="288" 
d="M-248 -86l-12 1q-40 11 -40 54q0 17 2 35q2 48 79 204q176 355 529 908q127 200 166 242q43 47 74 47q38 0 38 -54q0 -168 -678 -1261q-59 -94 -90.5 -135t-67.5 -41z" />
    <glyph glyph-name="fraction" unicode="&#x2215;" horiz-adv-x="288" 
d="M-248 -86l-12 1q-40 11 -40 54q0 17 2 35q2 48 79 204q176 355 529 908q127 200 166 242q43 47 74 47q38 0 38 -54q0 -168 -678 -1261q-59 -94 -90.5 -135t-67.5 -41z" />
    <glyph glyph-name="lira" unicode="&#x20a4;" horiz-adv-x="1107" 
d="M855 -74q-85 0 -197 16q-125 17 -202 17q-129 0 -264 -22q-21 -4 -39 -4q-32 0 -58 15q-45 26 -45 84q0 44 58 129q101 147 130 289l-57 3q-41 1 -92 19q-35 13 -35 50q0 43 42 59q47 17 156 27q0 68 -1 100q-96 7 -139 23q-35 13 -35 50q0 43 42 59q51 20 124 25
q0 103 5 162q10 139 101 243q112 129 331 129q199 0 301 -102q76 -77 76 -166q0 -48 -22 -71q-18 -19 -60 -19q-45 0 -71.5 19t-49.5 44.5t-53.5 46t-83.5 20.5q-94 0 -103 -120q-2 -33 -2 -67q0 -51 4 -104q196 -3 263 -28q34 -12 34 -49q0 -44 -41 -59q-68 -26 -242 -35
q1 -30 1 -90q165 -5 225 -26q34 -12 34 -48q0 -45 -41 -60q-65 -25 -248 -36q-24 -69 -67 -135q-80 -123 -171 -187q50 13 141.5 20t177.5 7q291 0 291 -145q0 -83 -118 -83z" />
    <glyph glyph-name="Euro" unicode="&#x20ac;" horiz-adv-x="1140" 
d="M652 -26q-109 0 -190 34q-240 100 -278 444h-42q-118 0 -118 66q0 46 38.5 61.5t116.5 24.5q1 54 6 105q-72 7 -106 20.5t-34 49.5q0 44 40.5 61t125.5 25q45 204 158 340q151 181 399 181q150 0 254 -82q99 -77 99 -189q0 -45 -23 -68.5t-54 -23.5q-32 0 -56.5 20
t-48.5 46q-18 20 -37 37.5t-42.5 29t-53.5 11.5q-58 0 -105.5 -59t-78.5 -166l-19 -65q140 -5 194 -26q32 -12 32 -49q0 -44 -39 -59q-58 -23 -216 -35q-4 -44 -6 -89q92 -2 132.5 -8t73.5 -18.5t33 -48.5q0 -45 -38 -60q-51 -21 -197 -34q14 -129 57 -198q38 -60 96 -60
q45 0 80 24t66 54q28 26 56 46t61 20q31 0 47 -20q12 -15 12 -40q0 -136 -126 -221q-119 -81 -269 -81z" />
    <glyph glyph-name="trademark" unicode="&#x2122;" horiz-adv-x="1358" 
d="M229 910q-49 0 -68.5 40.5t-19.5 131.5q0 167 41 310q9 31 26 54h-58q-49 0 -73 2q-33 3 -33 27q0 19 15 32q27 23 134 30q71 4 197 4q35 0 65 -3q64 -7 64 -35q0 -31 -45 -42q-37 -10 -130 -10q17 -24 20 -58q5 -45 5 -96q0 -169 -41 -306q-7 -22 -16 -40
q-21 -40 -83 -41zM1122 910q-98 0 -98 217q0 31 4 130q-9 -39 -36 -106q-32 -80 -70 -135q-45 -67 -88 -67q-56 0 -93 73q-29 56 -44 145q-12 63 -13 101q-19 -126 -45 -251l-7 -35q-5 -26 -12 -40q-15 -30 -50 -30q-29 0 -40 13.5t-11 40.5q0 22 5 61q24 228 73 430
q12 50 47 73q19 12 48 12q72 0 113 -70q55 -91 55 -275q0 -44 -3 -72q64 166 151 328q26 49 51 69.5t76 20.5q42 0 64 -43t24.5 -94t2.5 -74q0 -66 -8 -151q-12 -116 -24 -174.5t-29 -77.5t-43 -19z" />
    <glyph glyph-name="minus" unicode="&#x2212;" horiz-adv-x="1002" 
d="M322 529q-207 0 -280 32q-39 17 -39 62q0 57 48 77q78 32 202 39q186 9 389 9q32 0 86 -1t115 -9q52 -7 93 -23t41 -60q0 -106 -254 -117q-191 -9 -401 -9z" />
    <glyph glyph-name="approxequal" unicode="&#x2248;" horiz-adv-x="941" 
d="M621 584q-131 0 -223 71q-75 58 -108 58q-27 0 -81 -41q-72 -56 -112 -56q-16 0 -28 9q-19 13 -19 43q0 21 10 50q45 135 169 185q46 18 86 18q95 -1 206 -70q90 -56 129 -56q41 0 103 43q56 40 84 40q14 0 26 -7q28 -16 28 -47q0 -8 -5.5 -34t-33.5 -70t-53 -64
q-93 -72 -178 -72zM621 247q-131 0 -223 71q-75 58 -108 58q-27 0 -81 -41q-72 -56 -112 -56q-16 0 -28 9q-19 13 -19 43q0 21 10 50q45 135 169 185q46 18 86 18q95 -1 206 -70q90 -56 129 -56q41 0 103 43q56 40 84 40q14 0 26 -7q28 -16 28 -47q0 -8 -5.5 -34t-33.5 -70
t-53 -64q-93 -72 -178 -72z" />
    <glyph glyph-name="lessequal" unicode="&#x2264;" horiz-adv-x="892" 
d="M737 330q-102 0 -369 123q-144 67 -258 141q-102 67 -102 135q0 80 126.5 159.5t282.5 153.5t302 123q53 19 94 19q50 0 50 -45q0 -83 -97 -142q-259 -156 -514 -253q232 -85 470 -229q84 -51 84 -106q0 -15 -7 -32q-20 -47 -62 -47zM169 0q-207 0 -280 32q-39 17 -39 62
q0 57 48 77q78 32 202 39q186 10 389 10q32 0 86 -1.5t115 -9.5q52 -7 93 -23t41 -60q0 -105 -254 -117q-191 -9 -401 -9z" />
    <glyph glyph-name="greaterequal" unicode="&#x2265;" horiz-adv-x="840" 
d="M81 1184q101 0 369 -124q144 -66 258 -141q101 -67 101 -135q0 -80 -126 -159t-282 -153t-303 -124q-53 -18 -94 -18q-50 0 -50 44q0 83 97 142q260 156 515 254q-233 84 -471 228q-83 51 -83 107q0 15 7 31q20 48 62 48zM127 0q-207 0 -280 32q-39 17 -39 62q0 57 48 77
q78 32 202 39q186 10 389 10q32 0 86 -1.5t115 -9.5q52 -7 93 -23t41 -60q0 -105 -254 -117q-191 -9 -401 -9z" />
    <glyph glyph-name="uniE017" unicode="&#xe017;" horiz-adv-x="3656" 
d="M2760 1243q-36 0 -67 21q-64 42 -64 133q0 24 6 46q32 107 158 172l1 1q-19 34 -49 53q-82 53 -206 53q-35 0 -73 -4q-179 -19 -346 -95l-32 -16q10 -30 10 -64q0 -54 -26 -118q-68 -169 -185 -169q-42 0 -74 24q-49 36 -49 113q0 55 34 110q47 73 139 137
q-87 59 -250 59q-230 0 -420 -100q8 -37 8 -82q0 -161 -112 -214q-30 -15 -60 -15q-50 0 -81 39q-22 25 -22 68q0 35 16 81q31 91 120 160q-44 51 -140 51q-85 0 -195 -42q-186 -71 -286 -185q-47 -55 -47 -103q0 -22 -15 -37.5t-38 -15.5q-22 0 -37.5 15.5t-15.5 37.5
q0 70 57 144.5t148 138.5t196 104q128 49 235 49q151 0 226 -100q215 111 464 111q226 0 344 -107q211 103 426 125q42 5 82 5q154 0 264 -71q57 -37 87 -97q78 28 163 47q190 39 349 39h24l-73 84q-13 16 -13 36q0 21 19 38q15 14 35 14q21 0 38 -19l159 -183
q14 -16 14 -35q0 -31 -31 -46l-232 -111q-12 -6 -24 -6q-32 0 -46 30q-6 11 -6 23q0 33 30 47l45 22q-234 -12 -422 -81q2 -19 2 -39q0 -55 -16 -120q-40 -156 -146 -156zM252 -460q-28 0 -44 22l-149 210q-9 12 -9 31q0 35 35 48q236 87 246 87q34 0 48 -36q4 -9 4 -17
q0 -37 -34 -49l-108 -39q137 -38 318 -38q267 0 489 74q-2 21 -2 44q0 53 16 117q40 156 149 156q35 0 64 -19q65 -43 65 -135q0 -41 -17 -78q-40 -86 -147 -143q18 -31 48 -51q81 -52 207 -52q33 0 70 4q206 22 378 111q-9 29 -9 62q0 54 26 119q68 169 188 169
q40 0 71 -24q49 -37 49 -112q0 -56 -34 -109q-47 -75 -138 -137q84 -60 255 -60q223 0 415 99q-9 40 -9 88q0 93 40 147q56 77 134 77q48 0 79 -38q21 -26 21 -70q0 -35 -15 -80q-32 -91 -119 -159q41 -52 136 -52q92 0 198 42q87 34 162 82.5t123 102.5t48 104
q0 21 15.5 36t37.5 15q21 0 36.5 -15t15.5 -36q0 -72 -57 -146.5t-148 -137.5q-215 -150 -438 -150q-148 0 -219 96q-214 -110 -459 -110q-241 0 -348 107q-20 -11 -42 -21q-184 -85 -383 -105q-42 -4 -80 -4q-157 0 -267 72q-55 36 -87 94q-217 -79 -508 -79
q-174 0 -321 34l46 -66q10 -14 10 -30q0 -26 -23 -42q-14 -10 -29 -10zM2798 -134q39 39 55 86q11 30 11 42l-1 6q-5 0 -13 -3q-52 -24 -52 -120v-11zM1977 -157q122 83 122 156q0 33 -18 33q-10 0 -25 -9q-35 -22 -63 -93q-17 -42 -17 -75zM1152 -117q82 52 82 113
q0 49 -25 49q-26 0 -45 -74q-12 -49 -12 -88zM1104 1393q53 11 60 86l5 48q-39 -38 -55 -85q-10 -30 -10 -43v-6zM1887 1363q49 3 88 100q16 40 16 87q-122 -82 -122 -157q0 -30 16 -30h2zM2758 1348q27 0 46 76q11 45 12 83q-82 -51 -82 -109q0 -36 17 -47q4 -3 7 -3z" />
    <glyph glyph-name="uniE018" unicode="&#xe018;" horiz-adv-x="3344" 
d="M2448 391q-36 0 -67 21q-64 42 -64 133q0 24 6 46q32 107 158 172l1 1q-19 34 -49 53q-82 53 -206 53q-35 0 -73 -4q-179 -19 -345 -95l-33 -15q10 -31 10 -65q0 -54 -26 -117q-68 -170 -185 -170q-42 0 -73 24q-49 36 -49 113q0 55 33 110q47 73 139 137q-87 59 -250 59
q-230 0 -420 -100q8 -37 8 -82q0 -161 -112 -214q-30 -15 -59 -15q-50 0 -82 39q-22 25 -22 68q0 35 16 81q31 92 120 160q-44 51 -140 51q-85 0 -195 -42q-186 -71 -286 -185q-47 -55 -47 -103q0 -22 -15 -37.5t-38 -15.5q-22 0 -37.5 15.5t-15.5 37.5q0 70 57.5 144.5
t148 138.5t195.5 104q128 49 235 49q152 0 227 -100q214 111 463 111q226 0 344 -107q212 103 426 126q42 4 82 4q155 0 264 -71q57 -37 87 -97q78 28 163 47q190 39 349 39h24l-73 84q-13 16 -13 36q0 21 19 38q15 14 35 14q21 0 38 -19l159 -183q14 -15 14 -35
q0 -31 -31 -46l-232 -111q-12 -6 -24 -6q-31 0 -46 30q-6 12 -6 23q0 33 31 47l44 22q-234 -12 -422 -81q2 -19 2 -39q0 -54 -16 -120q-40 -156 -146 -156zM793 542q52 10 59 85l5 49q-39 -39 -55 -86q-10 -30 -10 -43zM1575 511q49 4 88 100q16 38 16 69v18
q-122 -82 -122 -157q0 -30 16 -30h2zM2446 496q27 0 46 76q11 45 13 83q-83 -51 -83 -109q0 -36 17 -47q4 -3 7 -3z" />
    <glyph glyph-name="uniE019" unicode="&#xe019;" horiz-adv-x="847" 
d="M139 588l31 162l-120 112l164 21l70 148l70 -148l163 -21l-120 -112l31 -162l-144 79zM508 1328l20 101l-75 70l101 12l44 93l44 -93l101 -12l-74 -70l19 -101l-90 50zM475 -96l26 138l-102 95l139 18l60 127l60 -127l139 -18l-102 -95l26 -138l-123 68z" />
    <glyph glyph-name="uniE01A" unicode="&#xe01a;" horiz-adv-x="847" 
d="M708 588l-145 79l-144 -79l31 162l-120 112l163 21l70 148l70 -148l164 -21l-120 -112zM339 1328l-90 50l-90 -50l19 101l-74 70l101 12l44 93l44 -93l101 -12l-75 -70zM372 -96l-123 68l-123 -68l26 138l-102 95l139 18l60 127l60 -127l139 -18l-102 -95z" />
    <glyph glyph-name="uniE01B" unicode="&#xe01b;" horiz-adv-x="567" 
d="M428 588l-144 79l-145 -79l31 162l-120 112l164 21l70 148l70 -148l163 -21l-120 -112z" />
    <glyph glyph-name="uniE01C" unicode="&#xe01c;" horiz-adv-x="2449" 
d="M1750 480q-79 0 -169 43q-87 41 -180 96q-87 52 -175 95t-171 56q-19 0 -19 -12q0 -16 32 -76q37 -69 37 -113q0 -65 -64 -65q-44 0 -141 36q-366 139 -496 184.5t-257 98.5q-97 41 -97 76q0 31 47 44q23 7 49 7q63 0 329 -97q110 -40 221 -75t228 -52q9 0 9 7
q0 10 -21 49q-24 43 -24 77q0 62 50 90q38 23 84 23q60 0 273 -75q98 -35 197.5 -62t202.5 -33q15 0 15 12q0 17 -18 56q-22 47 -22 69q0 62 58 73q18 3 36 3q58 0 582 -217q53 -22 53 -50q0 -4 -4.5 -22t-43.5 -18q-103 0 -262 68q-138 60 -199 60q-43 0 -43 -21
q0 -20 31 -76q42 -77 42 -131q0 -128 -170 -128zM604 961l-9 47l-43 17l41 22l4 47l33 -32l46 11l-20 -42l24 -40l-46 6zM1333 207l-13 68l-64 26l61 33l5 68l50 -47l67 16l-30 -62l37 -59l-69 10zM2206 1153l-7 87l-77 41l81 33l16 86l56 -67l87 12l-46 -74l38 -79l-85 21z
" />
    <glyph glyph-name="uniE01D" unicode="&#xe01d;" horiz-adv-x="2449" 
d="M708 480h-9q-170 0 -170 128q0 54 42 131q31 56 31 76q0 21 -43 21q-61 0 -199 -60q-160 -68 -262 -68q-39 0 -43.5 18t-4.5 22q0 28 53 50q524 217 581 217q18 0 37 -3q58 -11 58 -73q0 -22 -22 -69q-18 -39 -18 -56q0 -12 15 -12q103 6 202.5 33t197.5 62
q213 75 273 75q46 0 84 -23q50 -28 50 -90q0 -34 -24 -77q-22 -39 -22 -49q0 -7 10 -7q117 17 228 52t221 75q266 97 329 97q26 0 49 -7q47 -13 47 -44q0 -35 -97 -76q-127 -53 -257 -98.5t-496 -184.5q-97 -36 -141 -36q-65 0 -65 65q1 44 38 113q32 60 32 76q0 12 -20 12
q-82 -13 -170 -56t-176 -95q-92 -55 -178.5 -96t-160.5 -43zM1845 961l-30 36l-47 -6l25 40l-20 42l45 -11l34 32l4 -47l41 -22l-43 -17zM1116 207l-44 53l-69 -10l37 59l-31 62l68 -16l49 47l5 -68l61 -33l-64 -26zM243 1153l-63 60l-85 -21l38 79l-46 74l87 -12l56 67
l16 -86l80 -33l-77 -41z" />
    <glyph glyph-name="uniE01E" unicode="&#xe01e;" horiz-adv-x="2449" 
d="M1764 1013q58 0 582 -218q53 -22 53 -50q0 -4 -4.5 -22t-43.5 -18q-103 0 -262 68q-138 60 -199 60q-43 0 -43 -20q0 -21 31 -77q42 -77 42 -131q0 -127 -169 -127q-82 0 -169.5 41.5t-180.5 96.5q-87 52 -175 95t-171 56l-5 1q-14 0 -14 -13q0 -16 32 -76
q37 -69 37 -113q0 -65 -64 -65q-44 0 -141 37l-496 184q-130 45 -257 98q-97 41 -97 76q0 31 47 44q23 7 49 7q63 0 329 -97q110 -40 221 -75t228 -52q9 0 9 8q0 9 -21 48q-24 43 -24 77q0 62 50 91q38 22 84 22q23 0 49 -6q113 -29 224 -69q98 -35 197.5 -62t201.5 -33
q16 0 16 13q0 16 -18 55q-22 47 -22 69q0 77 94 77z" />
    <glyph glyph-name="uniE01F" unicode="&#xe01f;" horiz-adv-x="2449" 
d="M684 1013q18 0 37 -4q58 -10 58 -73q0 -22 -22 -69q-18 -39 -18 -55q0 -13 16 -13q102 6 201.5 33t197.5 62q111 40 224 69q26 6 49 6q46 0 84 -22q50 -29 50 -91q0 -34 -24 -77q-22 -39 -22 -48q0 -8 10 -8q117 17 228 52t221 75q266 97 329 97q26 0 49 -7
q47 -13 47 -44q0 -35 -97 -76q-127 -53 -257 -98q-59 -21 -496 -184q-97 -37 -141 -37q-65 0 -65 65q1 44 38 113q32 60 32 76q0 13 -14 13q-90 -15 -177 -57.5t-175 -94.5q-92 -55 -179.5 -96.5t-169.5 -41.5q-169 0 -169 127q0 54 42 131q31 56 31 77q0 20 -43 20
q-61 0 -199 -60q-160 -68 -262 -68q-39 0 -43.5 18t-4.5 22q0 28 53 50q524 218 581 218z" />
    <glyph glyph-name="uniE020" unicode="&#xe020;" horiz-adv-x="2765" 
d="M2659 -459q-17 0 -33 11q-71 58 -128 106q-63 53 -99 80t-58 27t-58 -27t-100 -80q-56 -47 -125 -103q-15 -13 -38 -13q-18 0 -32 11q-72 57 -129 105q-64 53 -100 80t-57 27t-57.5 -27t-100.5 -80q-56 -47 -126 -103q-15 -13 -37 -13q-17 0 -32 11q-71 57 -129 105
q-64 53 -100 80t-56 27q-22 0 -58.5 -27t-99.5 -80q-56 -47 -127 -103q-15 -13 -36 -13q-18 0 -33 11q-71 57 -129 105q-63 53 -99.5 80t-57.5 27t-57 -27t-100 -80q-57 -48 -129 -106q-15 -11 -32 -11q-26 0 -43 21q-11 14 -11 35q0 25 19 41q79 62 127 104q77 65 127 98
t99 33q48 0 98.5 -33t127.5 -99q62 -54 74 -61t20 -7q15 0 57 39q85 77 164 129q50 32 99 32q83 0 261 -161q42 -39 57 -39q16 0 59 38q102 90 162 129q51 33 99 33q49 0 99 -33q77 -50 162 -128q43 -39 58 -39q16 0 58 38q103 90 163 129q50 33 99 33t99 -33t127 -98
q48 -42 127 -105q21 -17 21 -43q0 -18 -15 -35.5t-41 -17.5zM2661 1582q-19 0 -35 12q-71 58 -128 106q-63 53 -99 80t-58 27t-58 -27t-100 -81q-138 -116 -151 -116l-12 -1q-17 0 -32 12q-65 53 -129 106t-100 80t-57 27t-57.5 -27t-100.5 -81q-137 -116 -151 -116l-11 -1
q-18 0 -33 12q-64 53 -128.5 106t-100.5 80t-56 27q-22 0 -58.5 -27t-99.5 -81q-138 -116 -152 -116l-12 -1q-17 0 -32 12l-128 106t-100.5 80t-57.5 27t-57 -27t-100 -80t-129 -106q-16 -12 -34 -12q-25 0 -42 22q-12 15 -12 33q0 26 21 42q79 63 127 103q77 66 127 99.5
t99 33.5q48 0 98.5 -33.5t127.5 -99.5q62 -54 74 -60.5t20 -6.5q16 0 58 38q176 162 262 162q47 0 97.5 -33.5t161.5 -129.5q43 -37 59 -37q17 0 60 37q105 92 161 130q51 33 99 33q49 0 99 -33q45 -30 161 -130q42 -37 59 -37t59 37q105 92 162 130q50 33 99 33t99 -33.5
t127 -99.5q48 -40 127 -103q18 -14 19.5 -27t1.5 -17q0 -17 -12 -32q-15 -18 -27.5 -19.5t-14.5 -1.5z" />
    <glyph glyph-name="uniE021" unicode="&#xe021;" horiz-adv-x="2765" 
d="M2660 561q-18 0 -34 13q-71 57 -128 105q-63 53 -99.5 80t-57.5 27q-22 0 -58 -27t-100 -81q-138 -116 -151 -116h-12q-18 0 -33 12q-71 57 -128 104q-64 54 -100.5 81t-56.5 27q-22 0 -58 -27t-100 -81q-138 -116 -152 -116h-11q-18 0 -33 12q-71 57 -128 104
q-64 54 -100 81t-57 27q-22 0 -58 -27t-100 -81q-138 -116 -152 -116h-12q-16 0 -31 12q-72 57 -129 104q-64 54 -100 81t-58 27q-20 0 -56.5 -27t-100.5 -81q-57 -47 -128 -104q-16 -13 -34 -13q-26 0 -42 22q-12 15 -12 33q0 26 21 42q79 64 126 104q77 66 127.5 99.5
t98.5 33.5q49 0 99 -33.5t127 -100.5q62 -54 74.5 -60.5t19.5 -6.5q17 0 58 38q176 163 262 163q48 0 98 -33.5t161 -130.5q43 -37 60 -37t59 37q105 92 162 130q50 34 99 34q48 0 99 -34q45 -30 160 -130q43 -37 60 -37q16 0 59 37q105 92 162 130q50 34 99 34
q48 0 98.5 -33.5t126.5 -99.5q48 -40 128 -104q17 -14 18.5 -27t1.5 -17q0 -17 -11 -32q-15 -18 -27.5 -19.5t-15.5 -1.5z" />
    <glyph glyph-name="uniE022" unicode="&#xe022;" horiz-adv-x="2128" 
d="M1073 -459q-17 0 -34 20q-30 39 -30 143q17 364 52 364q32 0 66 -335q3 -30 3 -55q0 -83 -25 -116q-16 -21 -32 -21zM1061 1389q-35 0 -51 342v28q0 98 29 136q17 20 34 20q16 0 32 -21q25 -33 25 -116q0 -25 -3 -55q-34 -334 -66 -334zM2041 909q-23 0 -58 16
q-142 66 -142 86q0 10 27 10q39 0 135 -24q57 -14 66 -33t9 -27q0 -14 -15 -23q-9 -5 -22 -5zM1748 1375q-6 0 -7 8q0 26 82 141q34 49 63 49h14q16 0 16 -33q0 -30 -41 -68q-101 -97 -127 -97zM1750 1170q-27 0 -27 8q0 21 203 97q55 21 88 21q15 0 25 -4q20 -8 20 -22
q0 -9 -15 -29t-94 -38q-148 -33 -200 -33zM88 909q-14 0 -23 5q-15 9 -15 23q0 8 10 27t66 33q96 24 135 24q27 0 27 -10q0 -20 -142 -86q-36 -16 -58 -16zM383 1375h-3q-25 0 -127 96q-40 38 -40 68q0 34 16 34h15q26 0 62 -50q81 -114 81 -140q0 -6 -4 -8zM378 1170
q-52 0 -200 33q-79 18 -93.5 38t-14.5 29q0 14 20 22q11 4 26 4q32 0 87 -21q203 -76 203 -97q0 -8 -28 -8zM771 1495q-34 0 -178 174q-50 61 -50 99q0 7 1 13q10 33 41 33q8 0 35 -5.5t69 -82.5q92 -167 92 -214q0 -17 -10 -17zM1349 1495q-10 0 -10 17q0 46 92 215
q42 76 69 81.5t35 5.5q31 0 40 -33q2 -7 2 -14q0 -38 -49 -97q-145 -175 -179 -175zM1865 436q-24 0 -24 9q0 20 142 87q34 16 57 16q14 0 23 -6q15 -9 15 -23q0 -8 -9 -27t-66 -33q-97 -23 -138 -23zM1900 -117h-14q-29 0 -63 49q-82 115 -82 141q1 8 6 8q27 0 128 -97
q41 -38 41 -69q0 -32 -16 -32zM2014 160q-33 0 -88 20q-203 77 -203 97q0 9 27 9q52 0 200 -33q79 -18 94 -38t15 -29q0 -14 -20 -22q-10 -4 -25 -4zM267 436q-43 0 -141 23q-56 14 -66 33t-10 27q0 14 15 23q9 6 23 6q23 0 58 -17q142 -66 142 -86q0 -9 -21 -9zM244 -117
h-15q-16 0 -16 33q0 31 40 69q102 96 127 96q7 0 7 -8q0 -26 -81 -140q-36 -50 -62 -50zM116 160q-15 0 -26 4q-20 8 -20 22q0 9 14.5 29t93.5 38q148 33 200 33q28 0 28 -8q0 -21 -203 -97q-55 -21 -87 -21zM585 -358q-31 0 -41 33q-1 6 -1 13q0 38 50 99q144 174 178 174
q10 0 10 -17q0 -47 -92 -214q-42 -77 -69 -82.5t-35 -5.5zM1535 -358q-8 0 -35 5.5t-69 81.5q-92 168 -92 215q0 17 10 17q34 0 179 -175q49 -59 49 -97q0 -8 -2 -14q-9 -33 -40 -33z" />
    <glyph glyph-name="uniE023" unicode="&#xe023;" horiz-adv-x="3336" 
d="M695 56q-36 0 -137 66q-508 335 -508 663q0 187 123 367q94 135 298 327q112 106 149 106q1 0 17.5 -2t35.5 -139l9 -65q517 100 1032 100q513 0 1320 -131q133 -21 189.5 -45.5t61.5 -89.5q1 -14 1 -31q0 -65 -18 -221q-36 -321 -94 -608q-23 -114 -62.5 -156t-96.5 -42
q-58 0 -153 21q-819 184 -1413 184q-316 0 -731 -57q2 -53 5 -94t3 -71q0 -82 -31 -82z" />
    <glyph glyph-name="uniE024" unicode="&#xe024;" horiz-adv-x="3336" 
d="M2641 56q-31 0 -31 82q0 30 3 71t5 94q-415 57 -731 57q-594 0 -1413 -184q-95 -21 -153 -21q-57 0 -96.5 42t-62.5 156q-58 287 -94 608q-18 156 -18 221q0 17 1 31q5 65 61.5 89.5t189.5 45.5q808 131 1320 131q515 0 1032 -100l9 65q19 137 35.5 139t17.5 2
q37 0 149 -106q204 -192 298 -327q123 -180 123 -367q0 -328 -508 -663q-101 -66 -137 -66z" />
    <glyph glyph-name="uniE025" unicode="&#xe025;" horiz-adv-x="3336" 
d="M695 1585q31 0 31 -82q0 -30 -3 -71t-5 -94q415 -57 731 -57q594 0 1413 184q95 21 153 21q57 0 96.5 -42t62.5 -156q58 -287 94 -608q18 -156 18 -221q0 -17 -1 -31q-5 -65 -61.5 -89.5t-189.5 -45.5q-807 -131 -1320 -131q-515 0 -1032 100l-9 -65q-19 -137 -35.5 -139
t-17.5 -2q-37 0 -149 106q-204 192 -298 327q-123 180 -123 367q0 328 508 663q101 66 137 66z" />
    <glyph glyph-name="uniE026" unicode="&#xe026;" horiz-adv-x="3336" 
d="M2641 1585q36 0 137 -66q508 -335 508 -663q0 -187 -123 -367q-94 -135 -298 -327q-112 -106 -149 -106q-1 0 -17.5 2t-35.5 139l-9 65q-517 -100 -1032 -100q-512 0 -1320 131q-133 21 -189.5 45.5t-61.5 89.5q-1 14 -1 31q0 65 18 221q36 321 94 608q23 114 62.5 156
t96.5 42q58 0 153 -21q819 -184 1413 -184q316 0 731 57q-2 53 -5 94t-3 71q0 82 31 82z" />
    <glyph glyph-name="uniE027" unicode="&#xe027;" horiz-adv-x="1904" 
d="M910 -35q-73 0 -159 85q-30 30 -170 47q-66 8 -123 20.5t-81 39.5q-81 91 -120 180q-37 83 -88 132q-109 107 -114 142t-5 46q0 54 43 136q12 23 51 147q20 66 20 123v49q0 57 35 92q38 40 96 74q44 26 86.5 58.5t73.5 80.5q17 26 50.5 28t54.5 2q32 0 66 -2q23 -1 56 -1
h37q45 0 71 15q138 80 233 80q88 0 188 -57q149 -86 333 -129q38 -9 55.5 -34t29.5 -60q44 -121 169 -207q56 -38 56 -98q0 -71 -39 -147.5t-39 -133.5q0 -63 12 -109q9 -35 9 -73v-9q-1 -83 -162 -176q-63 -36 -86 -70t-31 -63.5t-27 -52.5q-42 -51 -244 -59
q-97 -4 -174 -47.5t-117.5 -46t-45.5 -2.5z" />
    <glyph glyph-name="uniE028" unicode="&#xe028;" horiz-adv-x="2102" 
d="M1295 -35q-53 0 -225 24q-31 4 -106 4h-45q-104 0 -154 19l-66 25q-86 33 -192 58q-146 35 -211 103t-127 180l-46 81q-73 130 -73 253q0 107 82 253q32 57 42 110q8 47 31 98.5t93 117.5q74 70 171 104.5t217 61.5q72 16 142 43q114 43 204 43q100 0 188 -39
q75 -34 145 -34h52q60 0 116 -23q94 -38 163 -114q49 -55 102 -84.5t101 -78.5t87 -159q14 -39 29 -68q37 -72 37 -133q0 -40 -11 -95q-28 -139 -97 -247q-47 -73 -85 -194q-9 -27 -42 -70q-82 -107 -158 -129q-94 -27 -161 -59q-104 -51 -203 -51z" />
    <glyph glyph-name="_223" horiz-adv-x="0" 
 />
    </font>
</defs>
</svg>
